<svg id="Capa_1" enable-background="new 0 0 512 512" height="512" viewBox="0 0 512 512" width="512" xmlns="http://www.w3.org/2000/svg"><g><g><path d="m453.31 460.125c0 24.508-19.907 44.375-44.464 44.375h-305.692c-24.557 0-44.464-19.867-44.464-44.375v-408.25c0-24.508 19.907-44.375 44.464-44.375h190.303c8.857 0 17.35 3.516 23.606 9.773l126.505 126.521c6.239 6.239 9.742 14.694 9.742 23.508z" fill="#f9f8f9"/><path d="m133.15 504.5h-30c-24.55 0-44.46-19.87-44.46-44.38v-408.24c0-24.51 19.91-44.38 44.46-44.38h30c-24.55 0-44.46 19.87-44.46 44.38v408.24c0 24.51 19.91 44.38 44.46 44.38z" fill="#e3e0e4"/><path d="m453.31 167.3v16.24h-115.96c-33.12 0-60.06-26.95-60.06-60.07v-115.97h16.17c8.85 0 17.35 3.52 23.6 9.77l126.51 126.52c6.24 6.24 9.74 14.7 9.74 23.51z" fill="#e3e0e4"/><path d="m450.32 153.54h-112.97c-16.6 0-30.06-13.46-30.06-30.07v-112.96c3.61 1.63 6.92 3.91 9.77 6.76l126.51 126.52c2.85 2.85 5.12 6.15 6.75 9.75z" fill="#9ec8fc"/><path d="m435 438.5h-358c-22.091 0-40-17.909-40-40v-146c0-22.091 17.909-40 40-40h358c22.091 0 40 17.909 40 40v146c0 22.091-17.909 40-40 40z" fill="#9ec8fc"/><path d="m102 438.5h-25c-22.09 0-40-17.91-40-40v-146c0-22.09 17.91-40 40-40h25c-22.09 0-40 17.91-40 40v146c0 22.09 17.91 40 40 40z" fill="#62a4fb"/></g><g><path d="m460.811 212.656v-45.354c0-10.879-4.24-21.111-11.938-28.811l-126.506-126.52c-7.718-7.72-17.985-11.971-28.91-11.971h-35.591c-4.143 0-7.5 3.357-7.5 7.5s3.357 7.5 7.5 7.5h35.591c2.165 0 4.288.264 6.334.775v107.696c0 20.714 16.85 37.566 37.561 37.566h107.694c.505 2.025.765 4.125.765 6.265v38.954c-3.476-.812-7.092-1.256-10.811-1.256h-298.213c-4.143 0-7.5 3.357-7.5 7.5s3.357 7.5 7.5 7.5h298.213c17.921 0 32.5 14.579 32.5 32.5v110.915c0 4.143 3.357 7.5 7.5 7.5s7.5-3.357 7.5-7.5v-110.915c0-16.679-8.649-31.367-21.689-39.844zm-146.02-89.185v-97.863l120.414 120.429h-97.854c-12.439 0-22.56-10.123-22.56-22.566z"/><path d="m475 391c-4.143 0-7.5 3.357-7.5 7.5 0 17.921-14.579 32.5-32.5 32.5h-358c-17.921 0-32.5-14.579-32.5-32.5v-146c0-17.921 14.579-32.5 32.5-32.5h22.883c4.143 0 7.5-3.357 7.5-7.5s-3.357-7.5-7.5-7.5h-22.883c-3.719 0-7.335.444-10.811 1.256v-154.381c0-20.333 16.582-36.875 36.965-36.875h118.654c4.143 0 7.5-3.357 7.5-7.5s-3.357-7.5-7.5-7.5h-118.654c-28.653 0-51.965 23.271-51.965 51.875v160.781c-13.04 8.477-21.689 23.165-21.689 39.844v146c0 16.679 8.649 31.367 21.689 39.844v21.781c0 28.604 23.312 51.875 51.965 51.875h67.883c4.143 0 7.5-3.357 7.5-7.5s-3.357-7.5-7.5-7.5h-67.883c-20.383 0-36.965-16.542-36.965-36.875v-15.381c3.476.812 7.092 1.256 10.811 1.256h358c3.719 0 7.335-.444 10.811-1.256v15.381c0 20.333-16.582 36.875-36.965 36.875h-202.809c-4.143 0-7.5 3.357-7.5 7.5s3.357 7.5 7.5 7.5h202.809c28.653 0 51.965-23.271 51.965-51.875v-21.781c13.041-8.477 21.689-23.165 21.689-39.844 0-4.143-3.357-7.5-7.5-7.5z"/><path d="m205.311 388.419 9.429-24.757h62.347l9.335 24.736c1.458 3.914 5.891 5.823 9.665 4.368 3.875-1.462 5.831-5.789 4.368-9.665l-44.836-118.808c-.025-.069-.053-.138-.081-.206-1.585-3.851-5.298-6.338-9.461-6.338-.004 0-.008 0-.011 0-4.167.005-7.88 2.499-9.459 6.356-.023.057-.046.114-.067.172l-45.247 118.803c-1.475 3.87.469 8.203 4.34 9.678 3.866 1.475 8.203-.467 9.678-4.339zm40.745-106.982 25.37 67.226h-50.974z"/><path d="m402.087 296.566c0-21.403-18.208-38.816-40.589-38.816h-32.021c-.007 0-.013.001-.02.001-.006 0-.013-.001-.019-.001-4.143 0-7.5 3.357-7.5 7.5v120.5c0 4.143 3.357 7.5 7.5 7.5s7.5-3.357 7.5-7.5v-50.27c1.064-.006 2.204-.012 3.398-.018l48.62 55.243c2.745 3.118 7.488 3.403 10.585.675 3.109-2.736 3.411-7.476.675-10.585l-39.967-45.411c.438 0 .862-.001 1.249-.001 22.381 0 40.589-17.413 40.589-38.817zm-40.589-23.816c13.87 0 25.589 10.906 25.589 23.816s-11.719 23.816-25.589 23.816c-5.593 0-16.825.056-24.342.096-.042-7.433-.099-18.474-.099-23.912 0-4.577-.032-16.093-.057-23.816z"/><path d="m147.689 393.5c4.143 0 7.5-3.357 7.5-7.5v-113.5h26.047c4.143 0 7.5-3.357 7.5-7.5s-3.357-7.5-7.5-7.5h-66.823c-4.143 0-7.5 3.357-7.5 7.5s3.357 7.5 7.5 7.5h25.776v113.5c0 4.143 3.358 7.5 7.5 7.5z"/></g></g></svg>