<svg id="Capa_1" enable-background="new 0 0 512 512" height="512" viewBox="0 0 512 512" width="512" xmlns="http://www.w3.org/2000/svg"><g><g><path d="m417.723 119.5h-185.223c-2.76 0-5-2.24-5-5v-20c0-13.81-11.19-25-25-25h-170c-13.81 0-25 11.19-25 25v365c0 13.81 11.19 25 25 25h397c13.807 0 25-11.193 25-25v-302.755c0-13.81-22.967-37.245-36.777-37.245z" fill="#f3d332"/><path d="m454.5 185.5v274c0 13.81-11.19 25-25 25h-397c-12.1 0-22.18-8.59-24.5-20h14.5c1.81 0 2.99-.92 3.54-1.46.54-.55 1.46-1.73 1.46-3.54v-229c0-24.81 20.19-45 45-45z" fill="#dbb72b"/><g fill="#f9f8f9"><path d="m137.5 195.5h317v30h-317z"/><path d="m452.18 140.92h-87.48c-12.86 0-23.28-10.45-23.28-23.35v-87.74c2.79 1.27 5.36 3.05 7.57 5.26l97.97 98.26c2.21 2.22 3.96 4.78 5.22 7.57z"/><path d="m137.5 225.5v-163.536c0-19.034 15.417-34.464 34.435-34.464h158.769c6.859 0 13.436 2.731 18.281 7.59l97.97 98.264c4.831 4.846 7.545 11.412 7.545 18.258v73.888z"/></g><path d="m201.93 27.5c-19.01 0-34.43 15.43-34.43 34.46v163.54h-30v-163.54c0-19.03 15.42-34.46 34.43-34.46z" fill="#e3e0e4"/><path d="m454.5 151.61v9.31h-89.8c-23.87 0-43.28-19.45-43.28-43.35v-90.07h9.28c6.86 0 13.44 2.73 18.29 7.59l97.97 98.26c4.83 4.85 7.54 11.42 7.54 18.26z" fill="#f9f8f9"/><path d="m454.5 151.61v9.31h-89.8c-23.87 0-43.28-19.45-43.28-43.35v-90.07h9.28c6.86 0 13.44 2.73 18.29 7.59l97.97 98.26c4.83 4.85 7.54 11.42 7.54 18.26z" fill="#e3e0e4"/><path d="m452.18 140.92h-87.48c-12.86 0-23.28-10.45-23.28-23.35v-87.74c2.79 1.27 5.36 3.05 7.57 5.26l97.97 98.26c2.21 2.22 3.96 4.78 5.22 7.57z" fill="#b9a1d3"/><path d="m137.5 185.5h317v40h-317z" fill="#e3e0e4"/><path d="m504.5 240.5v219c0 13.81-11.19 25-25 25h-447c6.9 0 13.16-2.8 17.68-7.32s7.32-10.78 7.32-17.68v-219c0-13.81 11.19-25 25-25h397c13.81 0 25 11.19 25 25z" fill="#faf063"/></g><g><path d="m504.5 324.533c-4.143 0-7.5 3.357-7.5 7.5v127.467c0 9.649-7.851 17.5-17.5 17.5h-315.117c-4.143 0-7.5 3.357-7.5 7.5s3.357 7.5 7.5 7.5h315.117c17.921 0 32.5-14.579 32.5-32.5v-127.467c0-4.142-3.357-7.5-7.5-7.5z"/><path d="m479.5 208h-17.5v-56.388c0-8.892-3.457-17.257-9.733-23.554l-34.755-34.858c-2.927-2.935-7.675-2.939-10.607-.017-2.933 2.925-2.939 7.674-.016 10.606l29.543 29.631h-71.734c-8.701 0-15.779-7.111-15.779-15.852v-71.923l32.831 32.93c2.926 2.934 7.675 2.94 10.606.017 2.934-2.925 2.94-7.674.017-10.606l-38.075-38.189c-6.298-6.318-14.677-9.797-23.594-9.797h-158.77c-23.122 0-41.934 18.825-41.934 41.964v.036h-97.5c-17.921 0-32.5 14.579-32.5 32.5v42.309c0 4.143 3.357 7.5 7.5 7.5s7.5-3.357 7.5-7.5v-42.309c0-9.649 7.851-17.5 17.5-17.5h97.5v131h-47.5c-17.921 0-32.5 14.579-32.5 32.5v219c0 9.649-7.851 17.5-17.5 17.5s-17.5-7.851-17.5-17.5v-287.691c0-4.143-3.357-7.5-7.5-7.5s-7.5 3.357-7.5 7.5v287.691c0 17.921 14.579 32.5 32.5 32.5h96.883c4.143 0 7.5-3.357 7.5-7.5s-3.357-7.5-7.5-7.5h-69.518c3.244-5.056 5.135-11.059 5.135-17.5v-219c0-9.649 7.851-17.5 17.5-17.5h397c9.649 0 17.5 7.851 17.5 17.5v55.648c0 4.143 3.357 7.5 7.5 7.5s7.5-3.357 7.5-7.5v-55.648c0-17.921-14.579-32.5-32.5-32.5zm-334.5-146.036c0-14.868 12.083-26.964 26.935-26.964h158.77c1.09 0 2.162.109 3.214.295v82.274c0 17.012 13.808 30.852 30.779 30.852h82.012c.182 1.045.291 2.109.291 3.191v56.388h-302.001z"/></g></g></svg>