<svg id="Capa_1" enable-background="new 0 0 512 512" height="512" viewBox="0 0 512 512" width="512" xmlns="http://www.w3.org/2000/svg"><g><g><path d="m453.31 460.125c0 24.508-19.907 44.375-44.464 44.375h-305.692c-24.557 0-44.464-19.867-44.464-44.375v-408.25c0-24.508 19.907-44.375 44.464-44.375h190.303c8.857 0 17.35 3.516 23.606 9.773l126.505 126.521c6.239 6.239 9.742 14.694 9.742 23.508z" fill="#f9f8f9"/><path d="m133.15 504.5h-30c-24.55 0-44.46-19.87-44.46-44.38v-408.24c0-24.51 19.91-44.38 44.46-44.38h30c-24.55 0-44.46 19.87-44.46 44.38v408.24c0 24.51 19.91 44.38 44.46 44.38z" fill="#e3e0e4"/><path d="m453.31 167.3v16.24h-115.96c-33.12 0-60.06-26.95-60.06-60.07v-115.97h16.17c8.85 0 17.35 3.52 23.6 9.77l126.51 126.52c6.24 6.24 9.74 14.7 9.74 23.51z" fill="#e3e0e4"/><path d="m450.32 153.54h-112.97c-16.6 0-30.06-13.46-30.06-30.07v-112.96c3.61 1.63 6.92 3.91 9.77 6.76l126.51 126.52c2.85 2.85 5.12 6.15 6.75 9.75z" fill="#9ec8fc"/><path d="m435 438.5h-358c-22.091 0-40-17.909-40-40v-146c0-22.091 17.909-40 40-40h358c22.091 0 40 17.909 40 40v146c0 22.091-17.909 40-40 40z" fill="#9ec8fc"/><path d="m102 438.5h-25c-22.09 0-40-17.91-40-40v-146c0-22.09 17.91-40 40-40h25c-22.09 0-40 17.91-40 40v146c0 22.09 17.91 40 40 40z" fill="#62a4fb"/></g><g><path d="m475 327.841c4.143 0 7.5-3.357 7.5-7.5v-67.841c0-16.679-8.649-31.367-21.689-39.844v-45.354c0-10.879-4.24-21.111-11.938-28.811l-126.506-126.52c-7.718-7.72-17.985-11.971-28.91-11.971h-190.303c-28.653 0-51.965 23.271-51.965 51.875v125.625c0 4.143 3.357 7.5 7.5 7.5s7.5-3.357 7.5-7.5v-125.625c0-20.333 16.582-36.875 36.965-36.875h190.303c2.165 0 4.288.264 6.334.775v107.696c0 20.714 16.85 37.566 37.561 37.566h23.628c4.143 0 7.5-3.357 7.5-7.5s-3.357-7.5-7.5-7.5h-23.628c-12.439 0-22.561-10.123-22.561-22.566v-97.863l120.415 120.429h-39.226c-4.143 0-7.5 3.357-7.5 7.5s3.357 7.5 7.5 7.5h49.066c.505 2.025.765 4.125.765 6.265v38.954c-3.476-.812-7.092-1.256-10.811-1.256h-358c-26.191 0-47.5 21.309-47.5 47.5v146c0 16.679 8.649 31.367 21.689 39.844v21.781c0 28.604 23.312 51.875 51.965 51.875h305.691c28.653 0 51.965-23.271 51.965-51.875v-21.781c13.041-8.477 21.689-23.165 21.689-39.844v-43.159c0-4.143-3.357-7.5-7.5-7.5s-7.5 3.357-7.5 7.5v43.159c0 17.921-14.579 32.5-32.5 32.5h-186.083c-4.143 0-7.5 3.357-7.5 7.5s3.357 7.5 7.5 7.5h186.084c3.719 0 7.335-.444 10.811-1.256v15.381c0 20.333-16.582 36.875-36.965 36.875h-305.692c-20.383 0-36.965-16.542-36.965-36.875v-15.381c3.476.812 7.092 1.256 10.811 1.256h136.916c4.143 0 7.5-3.357 7.5-7.5s-3.357-7.5-7.5-7.5h-136.916c-17.921 0-32.5-14.579-32.5-32.5v-146c0-17.921 14.579-32.5 32.5-32.5h358c17.921 0 32.5 14.579 32.5 32.5v67.841c0 4.142 3.357 7.5 7.5 7.5z"/><path d="m304.981 374.996c-13.203 0-25.976-5.396-34.167-14.434-2.783-3.071-7.525-3.301-10.594-.521-3.069 2.782-3.303 7.525-.521 10.594 10.988 12.124 27.916 19.361 45.282 19.361 20.414 0 38.18-13.278 41.323-30.888 2.357-13.204-3.978-30.58-28.829-39.746-15.128-5.58-29.124-11.683-32.117-13.001-4.619-3.244-6.878-8.529-6.057-14.249.984-6.858 6.144-12.33 13.801-14.637 19.74-5.953 37.319 8.268 37.606 8.504 3.17 2.645 7.888 2.231 10.548-.932 2.665-3.171 2.255-7.902-.915-10.567-.962-.809-23.875-19.708-51.565-11.368-13.194 3.975-22.514 14.271-24.322 26.868-1.674 11.658 3.371 22.867 13.167 29.254.331.216.679.405 1.04.566.651.29 16.151 7.189 33.623 13.634 13.933 5.14 20.95 13.536 19.254 23.038-1.602 8.98-11.455 18.524-26.557 18.524z"/><path d="m172.718 261.004c-4.042-.076-7.566 3.475-7.5 7.5v113.992c0 4.143 3.357 7.5 7.5 7.5s7.5-3.357 7.5-7.5v-42.056c7.433-.042 18.677-.1 24.24-.1 22.221 0 40.299-17.795 40.299-39.668s-18.078-39.669-40.299-39.669h-31.74zm57.039 39.669c0 13.371-11.586 24.668-25.299 24.668-5.527 0-16.611.057-24.063.099-.042-7.637-.099-19.13-.099-24.767 0-4.742-.033-16.735-.057-24.669h24.218c13.714 0 25.3 11.297 25.3 24.669z"/></g></g></svg>