<?xml version='1.0' encoding='UTF-8'?>
<svg xmlns:dc="http://purl.org/dc/elements/1.1/" xmlns:cc="http://creativecommons.org/ns#" xmlns:rdf="http://www.w3.org/1999/02/22-rdf-syntax-ns#" xmlns:svg="http://www.w3.org/2000/svg" xmlns="http://www.w3.org/2000/svg" xmlns:sodipodi="http://sodipodi.sourceforge.net/DTD/sodipodi-0.dtd" xmlns:inkscape="http://www.inkscape.org/namespaces/inkscape" version="1.1" id="Logotype" x="0px" y="0px" width="4000px" height="3326px" viewBox="0 0 4000 3326" sodipodi:docname="source_436035.svg" inkscape:version="0.92.3 (2405546, 2018-03-11)">
  <!--Creator: logaster.com--><metadata id="metadata21">
    <rdf:RDF>
      <cc:Work rdf:about="">
        <dc:format>image/svg+xml</dc:format>
        <dc:type rdf:resource="http://purl.org/dc/dcmitype/StillImage"/>
      </cc:Work>
    </rdf:RDF>
  </metadata>
  <sodipodi:namedview pagecolor="#ffffff" bordercolor="#666666" borderopacity="1" objecttolerance="10" gridtolerance="10" guidetolerance="10" inkscape:pageopacity="0" inkscape:pageshadow="2" inkscape:window-width="640" inkscape:window-height="480" id="namedview19" showgrid="false" inkscape:zoom="0.070956103" inkscape:cx="2000" inkscape:cy="1663" inkscape:window-x="0" inkscape:window-y="0" inkscape:window-maximized="0" inkscape:current-layer="Logotype"/>
  <path style="fill:#ffffff" d="M 0,0 H 4000 V 3326 H 0 Z" id="background"/>
  <defs id="defs3"/>
  <path d="m 400,1696.015 266.89748,-61.5918 c 6.84353,0 10.26529,-3.4217 17.10882,-3.4217 17.10881,0 34.21762,6.8435 44.48291,20.5305 23.95234,23.9524 23.95234,65.0135 0,92.3876 -10.26529,13.6871 -27.3741,20.5306 -44.48291,20.5306 -6.84353,0 -10.26529,0 -17.10882,-3.4218 z m 75.27878,-157.4011 c -3.42177,-20.5306 10.26528,-37.6394 30.79586,-44.4829 3.42176,0 6.84353,0 10.26529,0 20.53057,-3.4218 37.63939,10.2652 44.48291,30.7958 0,3.4218 0,6.8435 0,10.2653 0,10.2653 -3.42176,20.5306 -10.26529,30.7959 -6.84352,10.2653 -17.10881,13.687 -27.3741,13.687 -10.26528,0 -23.95233,-3.4217 -30.79586,-10.2653 -13.68705,-6.8435 -17.10881,-17.1088 -17.10881,-30.7958 z m 13.68705,277.1627 c 6.84352,-6.8435 20.53057,-13.687 30.79586,-13.687 20.53058,-3.4218 37.63939,10.2653 41.06115,30.7959 0,3.4217 0,6.8435 0,10.2652 3.42176,20.5306 -10.26529,41.0612 -30.79586,41.0612 -3.42176,0 -6.84353,0 -10.26529,0 -20.53057,3.4218 -41.06115,-10.2653 -41.06115,-30.7959 0,-3.4217 0,-6.8435 0,-10.2653 -3.42176,-10.2652 3.42176,-20.5305 10.26529,-27.3741 z m 51.32644,-465.3597 232.67985,147.1358 c 3.42177,0 6.84353,3.4218 13.68705,10.2653 13.68705,13.6871 17.10882,27.3741 17.10882,47.9047 0,17.1088 -6.84353,34.2176 -17.10882,44.4829 -23.95233,23.9523 -65.01349,23.9523 -92.38759,0 -3.42176,-3.4218 -6.84352,-10.2653 -10.26528,-13.6871 z m 3.42176,691.1961 143.71403,-232.6799 c 13.68705,-20.5306 34.21762,-30.7958 58.16996,-34.2176 17.10882,0 34.21763,6.8435 44.48292,20.5306 13.68705,13.687 17.10881,27.3741 17.10881,44.4829 3.42176,23.9523 -10.26529,47.9047 -34.21763,58.1699 z m 102.65288,119.7617 c 0,-23.9524 20.53057,-41.0612 41.06115,-41.0612 10.26529,0 23.95234,3.4218 30.79586,13.6871 17.10881,13.687 17.10881,41.0611 3.42176,58.1699 l -3.42176,3.4218 c -6.84352,6.8435 -20.53057,13.687 -30.79586,13.687 -20.53058,3.4218 -41.06115,-10.2652 -41.06115,-30.7958 0,-10.2653 0,-13.6871 0,-17.1088 z m 82.1223,-875.9713 c 10.26529,0 20.53058,3.4218 27.3741,10.2653 10.26529,6.8436 13.68705,20.5306 13.68705,30.7959 3.42176,20.5306 -10.26529,37.6394 -30.79586,41.0611 -3.42177,0 -6.84353,0 -10.26529,0 -20.53058,3.4218 -37.63939,-10.2652 -41.06115,-30.7958 0,-3.4218 0,-6.8435 0,-10.2653 -3.42176,-20.5306 10.26529,-37.6394 30.79586,-41.0612 3.42176,0 6.84353,0 10.26529,0 z m 6.84352,828.0666 c 68.43526,-54.7482 119.7617,-126.6052 143.71403,-212.1493 h 13.68705 c 23.95234,85.5441 75.27878,157.4011 143.71399,212.1493 l -10.2652,10.2653 C 964.59083,2079.2524 916.68615,2017.6606 892.73381,1945.8036 v 198.4623 h -13.68705 v -198.4623 c -27.3741,71.857 -75.27877,133.4488 -133.44874,177.9317 z m 78.70054,-420.8768 c 0,-37.6394 30.79587,-68.4353 68.43526,-68.4353 v 0 c 20.53057,0 37.63939,6.8436 51.32644,20.5306 27.3741,27.3741 27.3741,71.857 0,99.2311 -13.68705,13.6871 -30.79587,20.5306 -51.32644,20.5306 -17.10882,0 -37.63939,-6.8435 -47.90468,-20.5306 -10.26529,-13.687 -20.53058,-30.7958 -20.53058,-51.3264 z m 6.84353,-201.884 c 0,-6.8435 0,-10.2653 3.42176,-17.1088 l 61.59173,-266.8975 65.01349,266.8975 c 0,6.8435 3.42176,10.2653 3.42176,17.1088 0,17.1088 -6.84352,34.2176 -20.53057,44.4829 -13.68705,13.6871 -30.79587,20.5306 -47.90468,20.5306 -17.10881,0 -34.21763,-6.8435 -44.48291,-20.5306 -13.68706,-10.2653 -20.53058,-27.3741 -20.53058,-44.4829 z m 23.95234,718.5701 c -3.42176,-20.5305 10.26529,-37.6393 30.79586,-41.0611 3.42176,0 6.84353,0 10.26529,0 10.26529,0 23.95234,3.4218 30.79586,13.687 17.10882,17.1089 17.10882,41.0612 0,58.17 v 0 c -6.84352,6.8435 -20.53057,13.6871 -30.79586,13.6871 -10.26529,0 -20.53058,-3.4218 -27.3741,-13.6871 -10.26529,-6.8435 -13.68705,-20.5306 -13.68705,-30.7959 z M 985.1214,1504.3962 c 3.42177,-3.4217 6.84353,-6.8435 13.68706,-10.2652 l 232.67984,-147.1358 -153.9793,246.3669 c -13.6871,13.687 -27.3741,17.1088 -47.9047,17.1088 -34.21761,0 -65.01347,-30.7959 -65.01347,-65.0135 0,-13.6871 6.84352,-30.7959 20.53057,-41.0612 z m 3.42177,287.4281 c 13.68703,-13.687 27.37413,-17.1088 44.48293,-17.1088 17.1088,0 34.2176,6.8435 44.4829,17.1088 3.4218,3.4218 6.8435,10.2653 10.2653,13.6871 l 147.1358,232.6798 -232.6799,-147.1358 c -3.42174,-3.4217 -10.26527,-6.8435 -13.68703,-10.2653 -27.3741,-23.9523 -27.3741,-65.0135 0,-88.9658 z m 13.68703,-465.3597 c -3.42174,-20.5306 10.2653,-37.6394 30.7959,-41.0612 3.4217,0 6.8435,0 10.2653,0 10.2653,0 20.5305,3.4218 30.7958,10.2653 6.8436,6.8436 13.6871,20.5306 13.6871,30.7959 3.4217,20.5306 -10.2653,41.0611 -30.7959,41.0611 -3.4217,0 -6.8435,0 -10.2653,0 -10.2653,0 -20.5305,-3.4217 -30.7958,-10.2652 -10.2653,-6.8436 -13.6871,-20.5306 -13.6871,-30.7959 z m 23.9524,366.1286 c 0,-34.2176 30.7958,-65.0135 65.0134,-65.0135 6.8436,0 10.2653,0 17.1089,0 l 266.8974,65.0135 -266.8974,61.5917 c -6.8436,3.4218 -10.2653,3.4218 -17.1089,3.4218 -37.6393,0 -65.0134,-27.3741 -65.0134,-65.0135 z m 13.687,468.7815 c 0,-23.9524 20.5306,-41.0612 41.0612,-41.0612 20.5305,0 41.0611,20.5306 41.0611,41.0612 0,23.9523 -17.1088,41.0611 -41.0611,41.0611 -20.5306,3.4218 -41.0612,-10.2653 -41.0612,-30.7958 0,-3.4218 0,-6.8436 0,-10.2653 z m 174.5099,-318.224 c -3.4218,-20.5305 10.2653,-37.6393 30.7959,-41.0611 3.4217,0 6.8435,0 10.2653,0 20.5305,-3.4218 37.6393,10.2653 41.0611,30.7959 0,3.4217 0,6.8435 0,10.2652 3.4218,20.5306 -10.2653,37.6394 -30.7959,41.0612 -3.4217,0 -6.8435,0 -10.2652,0 -20.5306,3.4218 -41.0612,-10.2653 -41.0612,-30.7959 -3.4218,-3.4217 -3.4218,-6.8435 0,-10.2653 z m 41.0612,-349.0197 c 20.5305,-3.4218 41.0611,10.2652 44.4829,30.7958 0,3.4218 0,6.8435 0,10.2653 0,10.2653 -3.4218,20.5306 -10.2653,27.3741 -13.6871,17.1088 -41.0612,20.5306 -58.17,3.4218 -10.2653,-6.8436 -13.687,-20.5306 -13.687,-34.2177 -3.4218,-20.5305 10.2652,-37.6393 30.7958,-41.0611 0,3.4218 3.4218,3.4218 6.8436,3.4218 z" id="rnd1" inkscape:connector-curvature="0" style="fill:#741b75;stroke-width:34.21762466"/>
  <g aria-label="IRIS" style="font-style:normal;font-weight:normal;font-size:749.58660889px;font-family:Prosto;letter-spacing:67.46279907px;fill:#741b75;stroke-width:31.23277664" id="text10">
    <path d="m 1994.2783,1957.5656 h -108.69 v -524.7107 h 108.69 z" style="font-style:normal;font-weight:normal;font-size:749.58660889px;font-family:Prosto;letter-spacing:67.46279907px;fill:#741b75;stroke-width:31.23277664" id="path3742"/>
    <path d="m 2436.6515,1432.8549 q 56.219,0 100.4446,12.743 44.9752,11.9934 75.7083,35.9802 30.733,23.2371 47.2239,57.7181 16.4909,33.7314 16.4909,77.2074 0,59.967 -29.9834,101.1942 -29.9835,41.2273 -86.2025,62.9653 l 123.6818,176.9025 h -123.6818 l -110.1892,-157.4132 h -13.4926 -161.1611 v 157.4132 h -108.6901 v -524.7107 z m -161.1611,56.219 v 254.8595 h 161.1611 q 59.2174,0 91.4496,-30.7331 32.2322,-31.4826 32.2322,-96.6967 0,-65.214 -32.2322,-95.947 -32.2322,-31.4827 -91.4496,-31.4827 z" style="font-style:normal;font-weight:normal;font-size:749.58660889px;font-family:Prosto;letter-spacing:67.46279907px;fill:#741b75;stroke-width:31.23277664" id="path3744"/>
    <path d="m 2943.2081,1957.5656 h -108.69 v -524.7107 h 108.69 z" style="font-style:normal;font-weight:normal;font-size:749.58660889px;font-family:Prosto;letter-spacing:67.46279907px;fill:#741b75;stroke-width:31.23277664" id="path3746"/>
    <path d="m 3602.9614,1818.892 q 0,32.2323 -13.4926,60.7165 -13.4925,27.7347 -44.2256,48.7232 -29.9834,20.2388 -78.7066,32.2322 -47.9735,11.9934 -118.4347,11.9934 -39.728,0 -77.957,-5.9967 -37.4793,-5.9967 -71.9603,-17.2405 -33.7314,-11.2438 -62.9653,-26.9851 -28.4842,-16.4909 -49.4727,-35.9802 l 37.4794,-44.9752 q 42.7264,36.7298 99.695,56.219 56.9686,18.7397 125.1809,18.7397 75.7083,0 107.1909,-20.9884 31.4827,-20.9885 31.4827,-57.7182 0,-28.4843 -24.7364,-47.9735 -24.7363,-19.4893 -83.9537,-38.229 L 3235.664,1706.454 q -70.4612,-22.4876 -106.4413,-56.9685 -35.9802,-35.2306 -35.9802,-89.2009 0,-27.7347 12.743,-53.2206 13.4925,-26.2355 41.2272,-45.7248 27.7347,-20.2388 70.4612,-31.4826 43.476,-11.9934 104.1925,-11.9934 36.7298,0 72.7099,5.9967 36.7298,5.9967 69.7116,17.2405 33.7314,11.2438 62.2157,27.7347 29.2338,15.7413 50.2223,35.2306 l -37.4794,44.9751 q -42.7264,-36.7297 -95.9471,-55.4694 -53.2206,-19.4892 -121.433,-19.4892 -56.219,0 -84.7033,19.4892 -27.7347,19.4893 -27.7347,47.9736 0,15.7413 5.2471,27.7347 5.2471,11.2438 17.2405,21.738 12.743,9.7446 32.9818,18.7397 20.2389,8.2454 50.2223,17.99 l 141.6719,44.9752 q 68.2124,21.7381 107.1909,56.9686 38.9785,35.2306 38.9785,89.2008 z" style="font-style:normal;font-weight:normal;font-size:749.58660889px;font-family:Prosto;letter-spacing:67.46279907px;fill:#741b75;stroke-width:31.23277664" id="path3748"/>
  </g>
</svg>