<svg id="Capa_1" enable-background="new 0 0 512 512" height="512" viewBox="0 0 512 512" width="512" xmlns="http://www.w3.org/2000/svg"><g><g><path d="m453.31 167.302v292.823c0 24.508-19.907 44.375-44.464 44.375h-305.692c-24.557 0-44.464-19.867-44.464-44.375v-408.25c0-24.508 19.907-44.375 44.464-44.375h190.303c8.857 0 17.35 3.516 23.606 9.773l126.505 126.521c6.239 6.239 9.742 14.694 9.742 23.508z" fill="#f9f8f9"/><path d="m453.31 167.3v16.24h-115.96c-33.12 0-60.06-26.95-60.06-60.07v-115.97h16.17c8.85 0 17.35 3.52 23.6 9.77l126.51 126.52c6.24 6.24 9.74 14.7 9.74 23.51z" fill="#e3e0e4"/><path d="m133.15 504.5h-30c-24.55 0-44.46-19.87-44.46-44.38v-408.24c0-24.51 19.91-44.38 44.46-44.38h30c-24.55 0-44.46 19.87-44.46 44.38v408.24c0 24.51 19.91 44.38 44.46 44.38z" fill="#e3e0e4"/><path d="m450.32 153.54h-112.97c-16.6 0-30.06-13.46-30.06-30.07v-112.96c3.61 1.63 6.92 3.91 9.77 6.76l126.51 126.52c2.85 2.85 5.12 6.15 6.75 9.75z" fill="#a29aa5"/><path d="m339.5 275.133-133.907 22.279.26 121.573c0 19.666-18.436 35.608-41.177 35.608s-41.176-15.941-41.176-35.607 18.435-35.608 41.177-35.608c1.977 0 5.823.123 5.823.123v-126c0-8.975 6.756-16.371 15.459-17.382 1.711-.199 150.579-25.623 169.147-28.794 10.041-1.749 19.502 6.929 19.394 17.176l-.1 190.486c0 19.666-18.435 35.608-41.177 35.608-22.741 0-41.177-15.942-41.177-35.608s18.435-35.608 41.177-35.608c2.132 0 6.277.123 6.277.123z" fill="#9ec8fc"/><path d="m175.35 453.38c-3.4.79-6.98 1.21-10.67 1.21-22.74 0-41.18-15.94-41.18-35.6 0-19.67 18.44-35.61 41.18-35.61 1.37 0 3.65.06 4.91.09-15.16 5.83-25.8 19.32-25.8 34.46 0 17.01 13.39 31.31 31.56 35.45z" fill="#62a4fb"/><path d="m346.38 452.74c-4.14 1.2-8.56 1.85-13.16 1.85-22.74 0-41.17-15.94-41.17-35.6 0-19.67 18.43-35.61 41.17-35.61 1.48 0 3.93.06 5.29.09-12.71 7.31-21.19 20.79-21.19 34.46 0 16.22 12.18 29.98 29.06 34.81z" fill="#62a4fb"/><g fill="#9ec8fc"><path d="m169.59 383.47c.3-.12.6-.23.91-.34v.37s-.36-.01-.91-.03z"/><path d="m339.5 382.92v.58s-.39-.01-.99-.03c.33-.19.66-.37.99-.55z"/></g></g><g><path d="m332 283.984v32.016c0 4.143 3.357 7.5 7.5 7.5s7.5-3.357 7.5-7.5v-40.867c.094-4.495-4.312-8.229-8.73-7.398l-133.907 22.279c-3.624.603-6.277 3.741-6.27 7.414l.261 121.558c0 15.499-15.107 28.108-33.677 28.108s-33.677-12.61-33.677-28.109 15.107-28.108 33.677-28.108c6.616.611 12.948-.035 13.323-7.377v-126c0-5.078 3.794-9.348 8.825-9.933 1.719-.2 106.962-18.162 169.567-28.855 6.607-.603 10.347 4.327 10.607 9.784l-.101 190.489c0 15.499-15.107 28.108-33.677 28.108s-33.677-12.609-33.677-28.108 15.107-28.108 33.677-28.108c6.858.539 13.336.219 13.777-7.377v-32.5c0-4.143-3.357-7.5-7.5-7.5s-7.5 3.357-7.5 7.5v24.891c-26.279.575-47.454 19.686-47.454 43.095 0 23.771 21.836 43.108 48.677 43.108s48.677-19.338 48.677-43.104l.102-190.411c.577-14.365-13.947-27.491-28.157-24.648-60.92 10.405-164.666 28.106-168.858 28.75-12.542 1.512-21.985 12.162-21.985 24.819v118.402c-26.066.786-47 19.811-47 43.083 0 23.771 21.836 43.108 48.677 43.108s48.677-19.338 48.677-43.124l-.247-115.205z"/><path d="m203.766 497h-100.612c-20.383 0-36.965-16.542-36.965-36.875v-214.027c0-4.142-3.357-7.5-7.5-7.5s-7.5 3.358-7.5 7.5v214.027c0 28.604 23.312 51.875 51.965 51.875h100.611c4.143 0 7.5-3.357 7.5-7.5s-3.357-7.5-7.499-7.5z"/><path d="m448.872 138.491-126.505-126.521c-7.718-7.719-17.985-11.97-28.91-11.97h-190.303c-28.653 0-51.965 23.271-51.965 51.875v159.223c0 4.142 3.357 7.5 7.5 7.5s7.5-3.358 7.5-7.5v-159.223c0-20.333 16.582-36.875 36.965-36.875h190.303c2.165 0 4.288.263 6.334.775v32.225c0 4.142 3.357 7.5 7.5 7.5s7.5-3.358 7.5-7.5v-22.393l120.415 120.43h-97.854c-12.439 0-22.561-10.124-22.561-22.567v-40.47c0-4.142-3.357-7.5-7.5-7.5s-7.5 3.358-7.5 7.5v40.47c0 20.714 16.85 37.567 37.561 37.567h107.694c.505 2.025.765 4.125.765 6.265v292.823c0 20.333-16.582 36.875-36.965 36.875h-170.08c-4.143 0-7.5 3.357-7.5 7.5s3.357 7.5 7.5 7.5h170.08c28.653 0 51.965-23.271 51.965-51.875v-292.823c0-10.879-4.241-21.111-11.939-28.811z"/></g></g></svg>