<svg id="Capa_1" enable-background="new 0 0 512 512" height="512" viewBox="0 0 512 512" width="512" xmlns="http://www.w3.org/2000/svg"><g><g><path d="m453.31 167.302v292.823c0 24.508-19.907 44.375-44.464 44.375h-305.692c-24.557 0-44.464-19.867-44.464-44.375v-408.25c0-24.508 19.907-44.375 44.464-44.375h190.303c8.857 0 17.35 3.516 23.606 9.773l126.505 126.521c6.239 6.239 9.742 14.694 9.742 23.508z" fill="#f9f8f9"/><path d="m453.31 167.3v16.24h-115.96c-33.12 0-60.06-26.95-60.06-60.07v-115.97h16.17c8.85 0 17.35 3.52 23.6 9.77l126.51 126.52c6.24 6.24 9.74 14.7 9.74 23.51z" fill="#e3e0e4"/><path d="m133.15 504.5h-30c-24.55 0-44.46-19.87-44.46-44.38v-408.24c0-24.51 19.91-44.38 44.46-44.38h30c-24.55 0-44.46 19.87-44.46 44.38v408.24c0 24.51 19.91 44.38 44.46 44.38z" fill="#e3e0e4"/><path d="m450.32 153.54h-112.97c-16.6 0-30.06-13.46-30.06-30.07v-112.96c3.61 1.63 6.92 3.91 9.77 6.76l126.51 126.52c2.85 2.85 5.12 6.15 6.75 9.75z" fill="#a29aa5"/><path d="m363 453.646h-214c-22.091 0-40-17.909-40-40v-154.292c0-22.091 17.909-40 40-40h214c22.091 0 40 17.909 40 40v154.293c0 22.091-17.909 39.999-40 39.999z" fill="#9ec8fc"/><path d="m134 413.65c0 22.09 17.91 40 40 40h-25c-22.09 0-40-17.91-40-40v-154.3c0-22.09 17.91-40 40-40h25c-22.09 0-40 17.91-40 40z" fill="#62a4fb"/><path d="m376.75 451.22c.91-.33 1.8-.7 2.68-1.09-.88.4-1.77.76-2.68 1.09z" fill="#9ec8fc"/><path d="m402.82 417.43c-1.9 20.32-19 36.22-39.82 36.22h-214c-22.09 0-40-17.91-40-40v-.94l60.65-68.73c6.38-4.77 15.17-4.63 21.4.32l27.11 21.54c8.35 6.64 20.44 5.56 27.48-2.47l49.99-57c7.36-8.4 20.6-7.86 27.26 1.11z" fill="#b9a1d3"/><path d="m174 453.65h-25c-22.09 0-40-17.91-40-40v-.94l25-28.33v29.27c0 22.09 17.91 40 40 40z" fill="#9573bb"/><path d="m376.75 451.22c.91-.33 1.8-.7 2.68-1.09-.88.4-1.77.76-2.68 1.09z" fill="#b9a1d3"/><circle cx="219.587" cy="285.995" fill="#faf063" r="21.578"/></g><g><path d="m448.872 138.491-126.505-126.52c-7.719-7.72-17.986-11.971-28.91-11.971h-190.303c-28.653 0-51.964 23.271-51.964 51.875v310.554c0 4.143 3.358 7.5 7.5 7.5s7.5-3.357 7.5-7.5v-310.554c0-20.333 16.582-36.875 36.964-36.875h190.303c2.144 0 4.273.274 6.334.798v49.439c0 4.143 3.358 7.5 7.5 7.5s7.5-3.357 7.5-7.5v-39.628l120.413 120.428h-97.853c-12.439 0-22.56-10.123-22.56-22.566v-23.233c0-4.143-3.358-7.5-7.5-7.5s-7.5 3.357-7.5 7.5v23.233c0 20.714 16.85 37.566 37.56 37.566h107.694c.505 2.025.765 4.125.765 6.265v292.823c0 20.333-16.582 36.875-36.964 36.875h-305.692c-20.382 0-36.964-16.542-36.964-36.875v-62.696c0-4.143-3.358-7.5-7.5-7.5s-7.5 3.357-7.5 7.5v62.696c0 28.604 23.311 51.875 51.964 51.875h305.692c28.653 0 51.964-23.271 51.964-51.875v-292.823c0-10.88-4.24-21.112-11.938-28.811z"/><path d="m219.587 315.073c16.034 0 29.078-13.044 29.078-29.078s-13.044-29.078-29.078-29.078-29.078 13.044-29.078 29.078 13.044 29.078 29.078 29.078zm0-43.156c7.763 0 14.078 6.315 14.078 14.078s-6.315 14.078-14.078 14.078c-7.762 0-14.078-6.315-14.078-14.078s6.316-14.078 14.078-14.078z"/><path d="m149 226.854h16.127c4.142 0 7.5-3.357 7.5-7.5s-3.358-7.5-7.5-7.5h-16.127c-26.191 0-47.5 21.309-47.5 47.5v154.293c0 26.191 21.309 47.5 47.5 47.5h214c26.191 0 47.5-21.309 47.5-47.5v-154.293c0-26.191-21.309-47.5-47.5-47.5h-162.873c-4.142 0-7.5 3.357-7.5 7.5s3.358 7.5 7.5 7.5h162.873c17.92 0 32.5 14.579 32.5 32.5v136.515l-66.518-92.761c-.024-.033-.048-.066-.072-.099-4.531-6.104-11.486-9.783-19.082-10.092-7.587-.326-14.827 2.791-19.84 8.506l-11.868 13.533c-2.731 3.114-2.42 7.854.694 10.584 3.114 2.731 7.852 2.421 10.584-.693l11.867-13.533c3.958-4.76 11.983-4.445 15.567.593l77.918 108.658c-3.18 14.607-16.205 25.582-31.751 25.582h-213.999c-16.89 0-30.807-12.952-32.352-29.445l58.07-67.116c3.587-2.307 8.289-2.099 11.667.586l27.104 21.544c11.5 9.145 28.1 7.651 37.788-3.396l15.038-17.148c2.731-3.114 2.42-7.854-.694-10.584-3.114-2.732-7.853-2.421-10.584.693l-15.038 17.148c-4.402 5.022-11.947 5.701-17.176 1.544l-27.104-21.544c-8.89-7.068-21.454-7.257-30.552-.463-1.319.765-47.501 54.888-48.667 55.981v-134.593c0-17.921 14.58-32.5 32.5-32.5z"/></g></g></svg>