<svg id="Capa_1" enable-background="new 0 0 512 512" height="512" viewBox="0 0 512 512" width="512" xmlns="http://www.w3.org/2000/svg"><g><g><path d="m453.31 460.125c0 24.508-19.907 44.375-44.464 44.375h-305.692c-24.557 0-44.464-19.867-44.464-44.375v-408.25c0-24.508 19.907-44.375 44.464-44.375h190.303c8.857 0 17.35 3.516 23.606 9.773l126.505 126.521c6.239 6.239 9.742 14.694 9.742 23.508z" fill="#f9f8f9"/><path d="m133.15 504.5h-30c-24.55 0-44.46-19.87-44.46-44.38v-408.24c0-24.51 19.91-44.38 44.46-44.38h30c-24.55 0-44.46 19.87-44.46 44.38v408.24c0 24.51 19.91 44.38 44.46 44.38z" fill="#e3e0e4"/><path d="m453.31 167.3v16.24h-115.96c-33.12 0-60.06-26.95-60.06-60.07v-115.97h16.17c8.85 0 17.35 3.52 23.6 9.77l126.51 126.52c6.24 6.24 9.74 14.7 9.74 23.51z" fill="#e3e0e4"/><path d="m450.32 153.54h-112.97c-16.6 0-30.06-13.46-30.06-30.07v-112.96c3.61 1.63 6.92 3.91 9.77 6.76l126.51 126.52c2.85 2.85 5.12 6.15 6.75 9.75z" fill="#faf063"/><path d="m435 438.5h-358c-22.091 0-40-17.909-40-40v-146c0-22.091 17.909-40 40-40h358c22.091 0 40 17.909 40 40v146c0 22.091-17.909 40-40 40z" fill="#faf063"/><path d="m102 438.5h-25c-22.09 0-40-17.91-40-40v-146c0-22.09 17.91-40 40-40h25c-22.09 0-40 17.91-40 40v146c0 22.09 17.91 40 40 40z" fill="#f3d332"/></g><g><path d="m475 362.061c-4.142 0-7.5 3.357-7.5 7.5v28.939c0 17.921-14.58 32.5-32.5 32.5h-358c-17.92 0-32.5-14.579-32.5-32.5v-146c0-17.921 14.58-32.5 32.5-32.5h34c4.142 0 7.5-3.357 7.5-7.5s-3.358-7.5-7.5-7.5h-34c-3.719 0-7.335.443-10.81 1.256v-154.381c0-20.333 16.582-36.875 36.964-36.875h70.43c4.142 0 7.5-3.357 7.5-7.5s-3.358-7.5-7.5-7.5h-70.43c-28.653 0-51.964 23.271-51.964 51.875v160.781c-13.041 8.476-21.69 23.165-21.69 39.844v146c0 16.679 8.649 31.368 21.69 39.844v21.781c0 28.604 23.311 51.875 51.964 51.875h305.692c28.653 0 51.964-23.271 51.964-51.875v-21.781c13.041-8.477 21.69-23.165 21.69-39.844v-28.939c0-4.143-3.358-7.5-7.5-7.5zm-29.19 98.064c0 20.333-16.582 36.875-36.964 36.875h-305.692c-20.382 0-36.964-16.542-36.964-36.875v-15.381c3.475.813 7.091 1.256 10.81 1.256h358c3.719 0 7.335-.443 10.81-1.256z"/><path d="m460.81 212.656v-45.354c0-10.88-4.24-21.111-11.938-28.811l-34.657-34.662c-2.928-2.929-7.677-2.93-10.606-.001s-2.93 7.678-.001 10.606l31.598 31.603h-97.853c-12.439 0-22.56-10.123-22.56-22.566v-97.862l63.585 63.593c2.929 2.93 7.677 2.929 10.607.001 2.929-2.929 2.929-7.678 0-10.606l-66.618-66.625c-7.719-7.721-17.986-11.972-28.91-11.972h-84.874c-4.142 0-7.5 3.357-7.5 7.5s3.358 7.5 7.5 7.5h84.874c2.144 0 4.273.274 6.334.798v107.673c0 20.714 16.85 37.566 37.56 37.566h107.694c.505 2.025.765 4.125.765 6.265v38.954c-3.475-.813-7.091-1.256-10.81-1.256h-287.681c-4.142 0-7.5 3.357-7.5 7.5s3.358 7.5 7.5 7.5h287.681c17.92 0 32.5 14.579 32.5 32.5v82.061c0 4.143 3.358 7.5 7.5 7.5s7.5-3.357 7.5-7.5v-82.061c0-16.679-8.649-31.368-21.69-39.844z"/><path d="m203.009 385.165 8.821-23.159h58.421l8.732 23.139c1.459 3.913 5.891 5.823 9.665 4.368 3.875-1.462 5.832-5.789 4.369-9.665l-42.415-112.392c-.026-.068-.053-.137-.081-.205-1.562-3.796-5.221-6.247-9.325-6.247-.003 0-.007 0-.011 0-4.108.004-7.768 2.464-9.323 6.267-.023.057-.045.112-.067.17l-42.804 112.386c-1.474 3.871.468 8.204 4.339 9.679s8.205-.469 9.679-4.341zm38.165-100.207 23.416 62.048h-47.048z"/><path d="m323.5 382.496v-113.992c0-4.143-3.358-7.5-7.5-7.5s-7.5 3.357-7.5 7.5v113.992c0 4.143 3.358 7.5 7.5 7.5s7.5-3.357 7.5-7.5z"/></g></g></svg>