<svg id="Capa_1" enable-background="new 0 0 512 512" height="512" viewBox="0 0 512 512" width="512" xmlns="http://www.w3.org/2000/svg"><g><g><path d="m453.31 167.302v292.823c0 24.508-19.907 44.375-44.464 44.375h-305.692c-24.557 0-44.464-19.867-44.464-44.375v-408.25c0-24.508 19.907-44.375 44.464-44.375h190.303c8.857 0 17.35 3.516 23.606 9.773l126.505 126.521c6.239 6.239 9.742 14.694 9.742 23.508z" fill="#f9f8f9"/><path d="m453.31 167.3v16.24h-115.96c-33.12 0-60.06-26.95-60.06-60.07v-115.97h16.17c8.85 0 17.35 3.52 23.6 9.77l126.51 126.52c6.24 6.24 9.74 14.7 9.74 23.51z" fill="#e3e0e4"/><path d="m133.15 504.5h-30c-24.55 0-44.46-19.87-44.46-44.38v-408.24c0-24.51 19.91-44.38 44.46-44.38h30c-24.55 0-44.46 19.87-44.46 44.38v408.24c0 24.51 19.91 44.38 44.46 44.38z" fill="#e3e0e4"/><path d="m450.32 153.54h-112.97c-16.6 0-30.06-13.46-30.06-30.07v-112.96c3.61 1.63 6.92 3.91 9.77 6.76l126.51 126.52c2.85 2.85 5.12 6.15 6.75 9.75z" fill="#a29aa5"/><circle cx="256" cy="326" fill="#dc4955" r="128"/><path d="m347.8 415.21c-23.27 23.93-55.8 38.79-91.8 38.79-70.69 0-128-57.31-128-128 0-46.21 24.49-86.7 61.2-109.21-22.4 23.06-36.2 54.53-36.2 89.21 0 70.69 57.31 128 128 128 24.48 0 47.35-6.87 66.8-18.79z" fill="#c42430"/><path d="m317.342 311.579c11.102 6.409 11.102 22.433 0 28.843l-42.928 24.784-42.927 24.784c-11.102 6.41-24.979-1.602-24.979-14.421v-49.569-49.568c0-12.819 13.877-20.831 24.979-14.421l42.927 24.784z" fill="#f9f8f9"/></g><g><path d="m58.689 407.5c4.143 0 7.5-3.357 7.5-7.5v-348.125c0-20.333 16.582-36.875 36.965-36.875h14.846c4.143 0 7.5-3.358 7.5-7.5s-3.357-7.5-7.5-7.5h-14.846c-28.653 0-51.965 23.271-51.965 51.875v348.125c0 4.143 3.358 7.5 7.5 7.5z"/><path d="m448.872 138.491-126.505-126.521c-7.718-7.719-17.985-11.97-28.91-11.97h-140.457c-4.143 0-7.5 3.358-7.5 7.5s3.357 7.5 7.5 7.5h140.457c2.165 0 4.288.263 6.334.775v107.695c0 20.714 16.85 37.567 37.561 37.567h107.694c.505 2.025.765 4.125.765 6.265v292.823c0 20.333-16.582 36.875-36.965 36.875h-305.692c-20.383 0-36.965-16.542-36.965-36.875v-25.125c0-4.143-3.357-7.5-7.5-7.5s-7.5 3.357-7.5 7.5v25.125c0 28.604 23.312 51.875 51.965 51.875h305.691c28.653 0 51.965-23.271 51.965-51.875v-292.823c.001-10.879-4.24-21.111-11.938-28.811zm-134.081-15.021v-97.863l120.414 120.43h-97.854c-12.439 0-22.56-10.123-22.56-22.567z"/><path d="m341.945 230.85c2.594-3.229 2.078-7.95-1.151-10.544-23.929-19.221-54.042-29.806-84.794-29.806-74.715 0-135.5 60.785-135.5 135.5s60.785 135.5 135.5 135.5 135.5-60.785 135.5-135.5c0-28.464-8.729-55.705-25.241-78.777-2.411-3.369-7.098-4.144-10.464-1.734-3.368 2.411-4.145 7.096-1.733 10.464 14.68 20.51 22.438 44.732 22.438 70.046 0 66.444-54.056 120.5-120.5 120.5s-120.5-54.055-120.5-120.499 54.056-120.5 120.5-120.5c27.744 0 53.817 9.164 75.401 26.5 3.231 2.595 7.952 2.079 10.544-1.15z"/><path d="m313.593 333.927-31.672 18.285c-3.587 2.071-4.816 6.658-2.745 10.245 2.07 3.587 6.66 4.815 10.245 2.745l31.672-18.285c15.922-8.484 15.92-33.351 0-41.834l-85.855-49.568c-7.563-4.366-16.592-4.366-24.152 0-7.562 4.366-12.076 12.185-12.076 20.917v99.137c0 8.731 4.515 16.551 12.076 20.917s16.591 4.366 24.152 0l23.809-13.746c3.587-2.071 4.816-6.658 2.745-10.245-2.072-3.587-6.659-4.815-10.245-2.745l-23.809 13.746c-6.89 3.287-13.128-.307-13.729-7.927v-99.137c.599-7.611 6.829-11.217 13.729-7.927l85.855 49.568c6.291 4.325 6.299 11.523 0 15.854z"/></g></g></svg>