<svg id="Capa_1" enable-background="new 0 0 511.988 511.988" height="512" viewBox="0 0 511.988 511.988" width="512" xmlns="http://www.w3.org/2000/svg"><g><g><path d="m393.479 151.547v263.953c0 22.091-17.909 40-40 40h-275c-22.091 0-40-17.909-40-40v-368c0-22.091 17.909-40 40-40h171.197c7.968 0 15.608 3.17 21.236 8.809l113.803 114.047c5.612 5.625 8.764 13.246 8.764 21.191z" fill="#f9f8f9"/><path d="m108.479 455.5h-30c-22.09 0-40-17.91-40-40v-368c0-22.09 17.91-40 40-40h30c-22.09 0-40 17.91-40 40v368c0 22.09 17.909 40 40 40z" fill="#e3e0e4"/><g fill="#a29aa5"><path d="m219.586 157.5h-123.7c-4.142 0-7.5-3.358-7.5-7.5s3.358-7.5 7.5-7.5h123.7c4.142 0 7.5 3.358 7.5 7.5s-3.357 7.5-7.5 7.5z"/><path d="m219.586 337.5h-123.7c-4.142 0-7.5-3.358-7.5-7.5s3.358-7.5 7.5-7.5h123.7c4.142 0 7.5 3.358 7.5 7.5s-3.357 7.5-7.5 7.5z"/><path d="m317.886 217.5h-224c-4.142 0-7.5-3.358-7.5-7.5s3.358-7.5 7.5-7.5h224c4.142 0 7.5 3.358 7.5 7.5s-3.358 7.5-7.5 7.5z"/></g><path d="m393.479 151.55v17.59h-104.32c-31.45 0-57.04-25.62-57.04-57.1v-104.54h17.56c7.96 0 15.6 3.17 21.23 8.81l113.81 114.05c5.609 5.62 8.76 13.24 8.76 21.19z" fill="#e3e0e4"/><path d="m390.789 139.14h-101.63c-14.93 0-27.04-12.14-27.04-27.1v-101.82c3.24 1.46 6.23 3.52 8.79 6.09l113.81 114.05c2.549 2.56 4.609 5.54 6.07 8.78z" fill="#a29aa5"/><path d="m405.279 413.5 61.712 55.872c8.414 8.272 8.724 21.458.69 29.394-8.023 7.925-21.311 7.595-29.642-.736l-61.529-56.01z" fill="#a29aa5"/><path d="m433.929 439.44c-7.7 11.25-17.36 21.06-28.49 28.92l-28.93-26.34 28.77-28.52z" fill="#766d78"/><path d="m433.929 439.44c-7.7 11.25-17.36 21.06-28.49 28.92l-28.93-26.34 28.77-28.52z" fill="#766d78"/><circle cx="339.862" cy="375.3" fill="#a29aa5" r="88.884"/><path d="m283.574 375.731c0-6.572 1.123-12.882 3.189-18.747 7.729-21.951 28.649-37.685 53.244-37.685 31.167 0 56.432 25.266 56.432 56.432s-25.266 56.432-56.432 56.432-56.433-25.265-56.433-56.432z" fill="#f9f8f9"/><path d="m388.638 404.36c-9.81 16.64-27.92 27.8-48.63 27.8-31.17 0-56.43-25.26-56.43-56.43 0-6.57 1.12-12.88 3.18-18.75 4.44-12.62 13.24-23.18 24.6-29.88-1.84 3.11-3.38 6.42-4.6 9.88-2.06 5.87-3.18 12.18-3.18 18.75 0 31.17 25.26 56.43 56.43 56.43 10.45 0 20.241-2.84 28.63-7.8z" fill="#e3e0e4"/><path d="m267.886 277.5h-174c-4.142 0-7.5-3.357-7.5-7.5s3.358-7.5 7.5-7.5h174c4.142 0 7.5 3.357 7.5 7.5s-3.358 7.5-7.5 7.5z" fill="#a29aa5"/></g><g><path d="m179.751 15h69.923c1.686 0 3.339.203 4.945.562v96.474c0 19.08 15.496 34.604 34.542 34.604h96.263c.353 1.595.553 3.234.553 4.907v34.734c0 4.143 3.358 7.5 7.5 7.5s7.5-3.357 7.5-7.5v-34.734c0-10.002-3.891-19.409-10.955-26.488l-113.803-114.047c-7.086-7.101-16.513-11.012-26.544-11.012h-69.923c-4.142 0-7.5 3.357-7.5 7.5s3.357 7.5 7.499 7.5zm195.648 116.64h-86.237c-10.776 0-19.542-8.794-19.542-19.604v-86.401z"/><path d="m38.479 151.888c4.142 0 7.5-3.357 7.5-7.5v-96.888c0-17.921 14.58-32.5 32.5-32.5h66.273c4.142 0 7.5-3.357 7.5-7.5s-3.358-7.5-7.5-7.5h-66.273c-26.191 0-47.5 21.309-47.5 47.5v96.888c0 4.142 3.357 7.5 7.5 7.5z"/><path d="m95.886 157.5h123.7c4.142 0 7.5-3.357 7.5-7.5s-3.358-7.5-7.5-7.5h-123.7c-4.142 0-7.5 3.357-7.5 7.5s3.358 7.5 7.5 7.5z"/><path d="m95.886 322.5c-4.142 0-7.5 3.357-7.5 7.5s3.358 7.5 7.5 7.5h123.7c4.142 0 7.5-3.357 7.5-7.5s-3.358-7.5-7.5-7.5z"/><path d="m325.386 210c0-4.143-3.358-7.5-7.5-7.5h-224c-4.142 0-7.5 3.357-7.5 7.5s3.358 7.5 7.5 7.5h224c4.142 0 7.5-3.357 7.5-7.5z"/><path d="m275.386 270c0-4.143-3.358-7.5-7.5-7.5h-174c-4.142 0-7.5 3.357-7.5 7.5s3.358 7.5 7.5 7.5h174c4.142 0 7.5-3.357 7.5-7.5z"/><path d="m472.249 464.023c-.091-.09-.185-.177-.281-.262l-47.572-42.2c7.55-13.74 11.85-29.508 11.85-46.262 0-29.968-13.749-56.783-35.268-74.474v-79.544c0-4.143-3.358-7.5-7.5-7.5s-7.5 3.357-7.5 7.5v69.403c-13.706-7.5-29.422-11.768-46.116-11.768-24.935 0-48.589 9.487-66.604 26.715-2.994 2.863-3.1 7.61-.237 10.604 2.861 2.994 7.61 3.098 10.604.237 15.21-14.546 35.183-22.557 56.237-22.557 44.875 0 81.384 36.509 81.384 81.384s-36.509 81.384-81.384 81.384-81.384-36.509-81.384-81.384c0-11.23 2.243-22.103 6.666-32.315 1.646-3.801-.101-8.217-3.901-9.862-3.803-1.648-8.218.101-9.863 3.901-5.243 12.105-7.901 24.983-7.901 38.276 0 28.983 12.86 55.016 33.172 72.7h-198.172c-17.92 0-32.5-14.579-32.5-32.5v-236.111c0-4.143-3.358-7.5-7.5-7.5s-7.5 3.357-7.5 7.5v236.112c0 26.191 21.309 47.5 47.5 47.5h221.421c12.181 5.573 25.715 8.684 39.963 8.684 16.218 0 31.51-4.032 44.935-11.138l48.099 42.948c5.737 5.651 13.213 8.495 20.607 8.495 7.095 0 14.114-2.619 19.447-7.887 5.206-5.142 8.067-12.051 8.059-19.456-.01-7.754-3.121-15.078-8.761-20.623zm-9.839 29.407c-5.094 5.032-13.647 4.718-19.068-.704-.1-.1-.203-.196-.308-.291l-45.095-40.265c6.806-5.155 12.908-11.191 18.137-17.938l45.78 40.611c2.676 2.69 4.149 6.171 4.154 9.821.004 3.356-1.275 6.469-3.6 8.766z"/><path d="m340.007 439.664c35.252 0 63.932-28.68 63.932-63.933s-28.68-63.933-63.932-63.933c-34.592-.482-64.445 29.332-63.933 63.933 0 35.253 28.68 63.933 63.933 63.933zm-46.17-80.188c6.882-19.545 25.436-32.677 46.169-32.677 26.981 0 48.932 21.951 48.932 48.933s-21.951 48.933-48.932 48.933-48.933-21.951-48.933-48.933c.001-5.581.931-11.049 2.764-16.256z"/></g></g></svg>