<svg id="Capa_1" enable-background="new 0 0 512 512" height="512" viewBox="0 0 512 512" width="512" xmlns="http://www.w3.org/2000/svg"><g><g><path d="m453.31 167.302v292.823c0 24.508-19.907 44.375-44.464 44.375h-305.692c-24.557 0-44.464-19.867-44.464-44.375v-408.25c0-24.508 19.907-44.375 44.464-44.375h190.303c8.857 0 17.35 3.516 23.606 9.773l126.505 126.521c6.239 6.239 9.742 14.694 9.742 23.508z" fill="#f9f8f9"/><path d="m453.31 167.3v16.24h-115.96c-33.12 0-60.06-26.95-60.06-60.07v-115.97h16.17c8.85 0 17.35 3.52 23.6 9.77l126.51 126.52c6.24 6.24 9.74 14.7 9.74 23.51z" fill="#e3e0e4"/><path d="m133.15 504.5h-30c-24.55 0-44.46-19.87-44.46-44.38v-408.24c0-24.51 19.91-44.38 44.46-44.38h30c-24.55 0-44.46 19.87-44.46 44.38v408.24c0 24.51 19.91 44.38 44.46 44.38z" fill="#e3e0e4"/><path d="m450.32 153.54h-112.97c-16.6 0-30.06-13.46-30.06-30.07v-112.96c3.61 1.63 6.92 3.91 9.77 6.76l126.51 126.52c2.85 2.85 5.12 6.15 6.75 9.75z" fill="#a29aa5"/><path d="m153.305 415.249c-9.353-.017-18.601-2.497-26.462-7.547-14.032-9.013-23.324-24.721-23.324-42.597 0-25.524 18.945-46.629 43.584-50.134.757-54.236 45.1-97.971 99.7-97.971 43.549 0 80.57 27.824 94.16 66.605.401-.007.798-.03 1.201-.03 36.626 0 66.317 29.591 66.317 66.093 0 34.336-26.277 62.541-59.881 65.768-1.383.133-195.295-.187-195.295-.187z" fill="#9ec8fc"/><path d="m246.8 217c16.69 0 32.42 4.09 46.24 11.31-5.28-.86-10.71-1.31-16.24-1.31-54.6 0-98.94 43.74-99.7 97.97-24.64 3.51-43.58 24.61-43.58 50.14 0 16.34 7.77 30.88 19.83 40.14-.03 0-.04 0-.04 0-9.36-.02-18.61-2.5-26.47-7.55-14.03-9.01-23.32-24.72-23.32-42.59 0-25.53 18.94-46.63 43.58-50.14.76-54.23 45.1-97.97 99.7-97.97z" fill="#62a4fb"/></g><g><path d="m243.984 497h-140.83c-20.383 0-36.965-16.542-36.965-36.875v-130.87c0-4.143-3.357-7.5-7.5-7.5s-7.5 3.357-7.5 7.5v130.87c0 28.604 23.312 51.875 51.965 51.875h140.83c4.143 0 7.5-3.357 7.5-7.5s-3.357-7.5-7.5-7.5z"/><path d="m448.872 138.491-126.505-126.52c-7.718-7.72-17.985-11.971-28.91-11.971h-139.053c-4.143 0-7.5 3.357-7.5 7.5s3.357 7.5 7.5 7.5h139.053c2.165 0 4.288.264 6.334.775v107.696c0 20.714 16.85 37.566 37.561 37.566h107.694c.505 2.025.765 4.125.765 6.265v292.823c0 20.333-16.582 36.875-36.965 36.875h-129.862c-4.143 0-7.5 3.357-7.5 7.5s3.357 7.5 7.5 7.5h129.861c28.653 0 51.965-23.271 51.965-51.875v-292.823c.001-10.879-4.24-21.112-11.938-28.811zm-134.081-15.02v-97.863l120.414 120.429h-97.854c-12.439 0-22.56-10.123-22.56-22.566z"/><path d="m58.689 301.755c4.143 0 7.5-3.357 7.5-7.5v-242.38c0-20.333 16.582-36.875 36.965-36.875h16.25c4.143 0 7.5-3.357 7.5-7.5s-3.357-7.5-7.5-7.5h-16.25c-28.653 0-51.965 23.271-51.965 51.875v242.38c0 4.142 3.358 7.5 7.5 7.5z"/><path d="m148.159 322.396c3.657-.52 6.391-3.626 6.442-7.32.698-49.943 42.06-90.576 92.201-90.576 17.363 0 34.275 4.832 48.906 13.973 3.511 2.195 8.141 1.127 10.334-2.387 2.195-3.513 1.127-8.14-2.387-10.334-17.015-10.632-36.676-16.252-56.852-16.252-28.369 0-55.111 10.938-75.301 30.801-18.718 18.414-29.82 42.537-31.643 68.474-25.387 6.499-43.841 29.694-43.841 56.331 0 19.856 10.008 38.139 26.771 48.907 8.865 5.694 19.413 8.716 30.503 8.736 101.301.167 150.12.214 173.72.214 21.66 0 22.076-.04 22.305-.062 18.175-1.745 34.992-10.132 47.354-23.615 12.453-13.582 19.312-31.203 19.312-49.618 0-39.239-30.964-71.404-69.812-73.485-3.598-8.833-8.367-17.14-14.22-24.753-2.522-3.284-7.232-3.9-10.517-1.376s-3.9 7.232-1.376 10.517c5.959 7.753 10.611 16.337 13.827 25.516 1.069 3.051 3.979 5.085 7.206 5.019.21-.004.419-.011.628-.018.147-.005.296-.012.445-.012 32.432 0 58.817 26.284 58.817 58.593 0 30.246-22.697 55.255-52.843 58.276-6.587.089-129.831-.088-194.82-.195-8.218-.016-15.972-2.214-22.422-6.357-12.447-7.995-19.878-21.56-19.878-36.286.001-21.337 15.967-39.698 37.141-42.711z"/></g></g></svg>