<svg id="Capa_1" enable-background="new 0 0 512 512" height="512" viewBox="0 0 512 512" width="512" xmlns="http://www.w3.org/2000/svg"><g><g><path d="m429.5 98.5h-197c-2.76 0-5-2.24-5-5v-20c0-13.81-11.19-25-25-25h-170c-13.81 0-25 11.19-25 25v365c0 13.81 11.19 25 25 25h397c13.807 0 25-11.193 25-25v-315c0-13.81-11.19-25-25-25z" fill="#f3d332"/><path d="m454.5 164.5v274c0 13.81-11.19 25-25 25h-397c-12.1 0-22.18-8.59-24.5-20h14.5c1.81 0 2.99-.92 3.54-1.46.54-.55 1.46-1.73 1.46-3.54v-229c0-24.81 20.19-45 45-45z" fill="#dbb72b"/><path d="m504.5 219.5v219c0 13.81-11.19 25-25 25h-447c6.9 0 13.16-2.8 17.68-7.32s7.32-10.78 7.32-17.68v-219c0-13.81 11.19-25 25-25h397c13.81 0 25 11.19 25 25z" fill="#faf063"/></g><g><path d="m504.5 308.894c-4.142 0-7.5 3.357-7.5 7.5v122.106c0 9.649-7.851 17.5-17.5 17.5h-419.635c3.244-5.056 5.135-11.059 5.135-17.5v-17.521c0-4.143-3.358-7.5-7.5-7.5s-7.5 3.357-7.5 7.5v17.521c0 9.649-7.851 17.5-17.5 17.5s-17.5-7.851-17.5-17.5v-365c0-9.649 7.851-17.5 17.5-17.5h23.096c4.142 0 7.5-3.357 7.5-7.5s-3.358-7.5-7.5-7.5h-23.096c-17.92 0-32.5 14.579-32.5 32.5v365c0 17.921 14.58 32.5 32.5 32.5h447c17.92 0 32.5-14.579 32.5-32.5v-122.106c0-4.143-3.358-7.5-7.5-7.5z"/><path d="m479.5 187h-17.5v-18.639c0-4.143-3.358-7.5-7.5-7.5s-7.5 3.357-7.5 7.5v18.639h-364.5c-17.92 0-32.5 14.579-32.5 32.5v167.309c0 4.143 3.358 7.5 7.5 7.5s7.5-3.357 7.5-7.5v-167.309c0-9.649 7.851-17.5 17.5-17.5h397c9.649 0 17.5 7.851 17.5 17.5v61.894c0 4.143 3.358 7.5 7.5 7.5s7.5-3.357 7.5-7.5v-61.894c0-17.921-14.58-32.5-32.5-32.5z"/><path d="m90.575 56h111.925c9.649 0 17.5 7.851 17.5 17.5v20c0 6.893 5.607 12.5 12.5 12.5h197c9.649 0 17.5 7.851 17.5 17.5v9.861c0 4.143 3.358 7.5 7.5 7.5s7.5-3.357 7.5-7.5v-9.861c0-17.921-14.58-32.5-32.5-32.5h-194.5v-17.5c0-17.921-14.58-32.5-32.5-32.5h-111.925c-4.142 0-7.5 3.357-7.5 7.5s3.358 7.5 7.5 7.5z"/></g></g></svg>