<svg id="Capa_1" enable-background="new 0 0 512 512" height="512" viewBox="0 0 512 512" width="512" xmlns="http://www.w3.org/2000/svg"><g><g><path d="m434.5 103.5v71h-352c-13.81 0-25 11.19-25 25v219c0 6.9-2.8 13.16-7.32 17.68s-10.78 7.32-17.68 7.32c-13.81 0-25-11.19-25-25v-365c0-13.81 11.19-25 25-25h170c13.81 0 25 11.19 25 25v20c0 2.76 2.24 5 5 5h177c13.81 0 25 11.19 25 25z" fill="#f3d332"/><path d="m434.5 103.5v71h-352c-13.81 0-25 11.19-25 25v219c0 6.9-2.8 13.16-7.32 17.68s-10.78 7.32-17.68 7.32c-12.1 0-22.18-8.59-24.5-20-.33-1.62-.5-3.29-.5-5v-365c0-13.81 11.19-25 25-25h170c13.81 0 25 11.19 25 25v20c0 2.76 2.24 5 5 5h177c13.81 0 25 11.19 25 25z" fill="#f3d332"/><path d="m434.5 144.5v274c0 13.807-11.193 25-25 25h-377c-12.1 0-22.18-8.59-24.5-20h14.5c1.81 0 2.99-.92 3.54-1.46.54-.55 1.46-1.73 1.46-3.54v-229c0-24.853 20.147-45 45-45z" fill="#dbb72b"/><path d="m484.5 199.5v219c0 13.81-11.19 25-25 25h-427c6.9 0 13.16-2.8 17.68-7.32s7.32-10.78 7.32-17.68v-219c0-13.81 11.19-25 25-25h377c13.81 0 25 11.19 25 25z" fill="#faf063"/><circle cx="403" cy="382" fill="#80e29e" r="101.5"/><path d="m484.07 443.07c-18.52 24.56-47.94 40.43-81.07 40.43-56.06 0-101.5-45.44-101.5-101.5 0-33.13 15.87-62.55 40.43-81.07-12.83 16.99-20.43 38.14-20.43 61.07 0 56.06 45.44 101.5 101.5 101.5 22.93 0 44.08-7.6 61.07-20.43z" fill="#77d192"/><path d="m403 437.5c-8.28 0-15-6.72-15-15v-25.5h-25.5c-8.28 0-15-6.72-15-15s6.72-15 15-15h25.5v-25.5c0-8.28 6.72-15 15-15s15 6.72 15 15v25.5h25.5c8.28 0 15 6.72 15 15s-6.72 15-15 15h-25.5v25.5c0 8.28-6.72 15-15 15z" fill="#f9f8f9"/></g><g><path d="m7.5 377.447c4.142 0 7.5-3.357 7.5-7.5v-316.447c0-9.649 7.851-17.5 17.5-17.5h102.34c4.142 0 7.5-3.357 7.5-7.5s-3.358-7.5-7.5-7.5h-102.34c-17.92 0-32.5 14.579-32.5 32.5v316.447c0 4.143 3.358 7.5 7.5 7.5z"/><path d="m492 319.14v-119.64c0-17.921-14.58-32.5-32.5-32.5h-17.5v-63.5c0-17.921-14.58-32.5-32.5-32.5h-174.5v-17.5c0-17.921-14.58-32.5-32.5-32.5h-32.66c-4.142 0-7.5 3.357-7.5 7.5s3.358 7.5 7.5 7.5h32.66c9.649 0 17.5 7.851 17.5 17.5v20c0 6.893 5.607 12.5 12.5 12.5h177c9.649 0 17.5 7.851 17.5 17.5v63.5h-269.734c-4.142 0-7.5 3.357-7.5 7.5s3.358 7.5 7.5 7.5h302.234c9.649 0 17.5 7.851 17.5 17.5v102.547c-19.451-18.016-45.459-29.047-74-29.047-60.103 0-109 48.897-109 109 0 19.634 5.221 38.071 14.343 54h-248.478c3.244-5.056 5.135-11.059 5.135-17.5v-219c0-9.649 7.851-17.5 17.5-17.5h39.766c4.142 0 7.5-3.357 7.5-7.5s-3.358-7.5-7.5-7.5h-39.766c-17.92 0-32.5 14.579-32.5 32.5v219c0 9.649-7.851 17.5-17.5 17.5s-17.5-7.851-17.5-17.5v-14.585c0-4.143-3.358-7.5-7.5-7.5s-7.5 3.357-7.5 7.5v14.585c0 17.921 14.58 32.5 32.5 32.5h286.184c20.006 24.402 50.372 40 84.316 40 18.205 0 36.225-4.579 52.112-13.242 3.637-1.983 4.978-6.539 2.994-10.176-1.983-3.636-6.538-4.976-10.175-2.994-13.691 7.466-29.228 11.412-44.931 11.412-51.832 0-94-42.168-94-94s42.168-94 94-94 94 42.168 94 94c0 22.984-8.383 45.107-23.604 62.295-2.746 3.102-2.458 7.841.642 10.587 3.101 2.747 7.842 2.457 10.587-.642 17.653-19.933 27.375-45.589 27.375-72.24 0-23.392-7.409-45.084-20-62.86z"/><path d="m443.5 359.5h-18v-18c0-12.406-10.093-22.5-22.5-22.5s-22.5 10.094-22.5 22.5v18h-18c-12.407 0-22.5 10.094-22.5 22.5s10.093 22.5 22.5 22.5h18v18c0 12.406 10.093 22.5 22.5 22.5s22.5-10.094 22.5-22.5v-18h18c12.407 0 22.5-10.094 22.5-22.5s-10.093-22.5-22.5-22.5zm0 30h-25.5c-4.142 0-7.5 3.357-7.5 7.5v25.5c0 4.136-3.364 7.5-7.5 7.5s-7.5-3.364-7.5-7.5v-25.5c0-4.143-3.358-7.5-7.5-7.5h-25.5c-4.136 0-7.5-3.364-7.5-7.5s3.364-7.5 7.5-7.5h25.5c4.142 0 7.5-3.357 7.5-7.5v-25.5c0-4.136 3.364-7.5 7.5-7.5s7.5 3.364 7.5 7.5v25.5c0 4.143 3.358 7.5 7.5 7.5h25.5c4.136 0 7.5 3.364 7.5 7.5s-3.364 7.5-7.5 7.5z"/></g></g></svg>