<svg id="Capa_1" enable-background="new 0 0 512 512" height="512" viewBox="0 0 512 512" width="512" xmlns="http://www.w3.org/2000/svg"><g><g><g><path d="m434.5 103.5v71h-352c-13.81 0-25 11.19-25 25v219c0 6.9-2.8 13.16-7.32 17.68s-10.78 7.32-17.68 7.32c-13.81 0-25-11.19-25-25v-365c0-13.81 11.19-25 25-25h170c13.81 0 25 11.19 25 25v20c0 2.76 2.24 5 5 5h177c13.81 0 25 11.19 25 25z" fill="#f3d332"/><path d="m434.5 103.5v71h-352c-13.81 0-25 11.19-25 25v219c0 6.9-2.8 13.16-7.32 17.68s-10.78 7.32-17.68 7.32c-12.1 0-22.18-8.59-24.5-20-.33-1.62-.5-3.29-.5-5v-365c0-13.81 11.19-25 25-25h170c13.81 0 25 11.19 25 25v20c0 2.76 2.24 5 5 5h177c13.81 0 25 11.19 25 25z" fill="#f3d332"/><path d="m434.5 144.5v274c0 13.807-11.193 25-25 25h-377c-12.1 0-22.18-8.59-24.5-20h14.5c1.81 0 2.99-.92 3.54-1.46.54-.55 1.46-1.73 1.46-3.54v-229c0-24.853 20.147-45 45-45z" fill="#dbb72b"/><path d="m484.5 199.5v219c0 13.81-11.19 25-25 25h-427c6.9 0 13.16-2.8 17.68-7.32s7.32-10.78 7.32-17.68v-219c0-13.81 11.19-25 25-25h377c13.81 0 25 11.19 25 25z" fill="#faf063"/><circle cx="403" cy="382" fill="#dc4955" r="101.5"/><path d="m484.07 443.07c-18.52 24.56-47.94 40.43-81.07 40.43-56.06 0-101.5-45.44-101.5-101.5 0-33.13 15.87-62.55 40.43-81.07-12.83 16.99-20.43 38.14-20.43 61.07 0 56.06 45.44 101.5 101.5 101.5 22.93 0 44.08-7.6 61.07-20.43z" fill="#c42430"/></g><path d="m442.244 421.244c-5.855 5.855-15.358 5.855-21.213 0l-18.031-18.031-18.031 18.031c-5.855 5.855-15.358 5.855-21.213 0s-5.855-15.358 0-21.213l18.031-18.031-18.031-18.031c-5.855-5.855-5.855-15.358 0-21.213s15.358-5.855 21.213 0l18.031 18.031 18.031-18.031c5.855-5.855 15.358-5.855 21.213 0s5.855 15.358 0 21.213l-18.031 18.031 18.031 18.031c5.855 5.855 5.855 15.359 0 21.213z" fill="#f9f8f9"/></g><g><path d="m492 319.202v-119.702c0-17.921-14.579-32.5-32.5-32.5h-17.5v-63.5c0-17.921-14.579-32.5-32.5-32.5h-174.5v-17.5c0-17.921-14.579-32.5-32.5-32.5h-170c-17.921 0-32.5 14.579-32.5 32.5v36.063c0 4.143 3.357 7.5 7.5 7.5s7.5-3.357 7.5-7.5v-36.063c0-9.649 7.851-17.5 17.5-17.5h170c9.649 0 17.5 7.851 17.5 17.5v20c0 6.893 5.607 12.5 12.5 12.5h177c9.649 0 17.5 7.851 17.5 17.5v63.5h-140.553c-4.143 0-7.5 3.357-7.5 7.5s3.357 7.5 7.5 7.5h173.053c9.649 0 17.5 7.851 17.5 17.5v102.543c-10.39-9.656-22.725-17.377-36.534-22.431-3.892-1.424-8.197.576-9.621 4.465-1.424 3.891.575 8.197 4.465 9.621 36.899 13.505 61.69 48.99 61.69 88.302 0 51.832-42.168 94-94 94s-94-42.168-94-94 42.168-94 94-94c4.143 0 7.5-3.357 7.5-7.5s-3.357-7.5-7.5-7.5c-60.103 0-109 48.897-109 109 0 19.634 5.221 38.071 14.343 54h-248.478c3.244-5.056 5.135-11.059 5.135-17.5v-57c0-4.143-3.357-7.5-7.5-7.5s-7.5 3.357-7.5 7.5v57c0 9.649-7.851 17.5-17.5 17.5s-17.5-7.851-17.5-17.5v-293.937c0-4.143-3.357-7.5-7.5-7.5s-7.5 3.357-7.5 7.5v293.937c0 17.921 14.579 32.5 32.5 32.5h286.185c20.006 24.402 50.372 40 84.315 40 60.103 0 109-48.897 109-109 0-22.955-7.297-44.781-20-62.798z"/><path d="m454.136 353.362c0-6.012-2.34-11.662-6.588-15.909-8.371-8.727-23.449-8.726-31.82-.001l-12.728 12.729-12.728-12.728c-8.37-8.727-23.45-8.727-31.819-.001-8.727 8.371-8.726 23.449-.001 31.82l12.729 12.728-12.728 12.728c-8.727 8.37-8.727 23.45-.001 31.819 8.371 8.727 23.449 8.726 31.82.001l12.728-12.729 12.728 12.728c8.371 8.727 23.449 8.727 31.82 0 8.726-8.371 8.725-23.449 0-31.819l-12.729-12.728 12.728-12.728c4.249-4.248 6.589-9.898 6.589-15.91zm-17.196 5.303-18.031 18.031c-2.929 2.93-2.929 7.678 0 10.607l18.032 18.031c2.907 2.788 2.906 7.819-.001 10.606-2.788 2.906-7.818 2.907-10.605-.001l-18.031-18.031c-1.465-1.464-3.385-2.196-5.304-2.196s-3.839.732-5.304 2.196l-18.031 18.032c-2.788 2.907-7.818 2.906-10.606-.001-2.906-2.788-2.907-7.818.001-10.605l18.031-18.031c2.929-2.93 2.929-7.678 0-10.607l-18.032-18.031c-2.907-2.788-2.906-7.818.001-10.606 2.788-2.906 7.818-2.907 10.605.001l18.031 18.031c2.93 2.928 7.678 2.928 10.607 0l18.031-18.032c2.788-2.907 7.818-2.906 10.606.001 2.908 2.787 2.908 7.818 0 10.605z"/><path d="m57.5 334c4.143 0 7.5-3.357 7.5-7.5v-127c0-9.649 7.851-17.5 17.5-17.5h168.968c4.143 0 7.5-3.357 7.5-7.5s-3.357-7.5-7.5-7.5h-168.968c-17.921 0-32.5 14.579-32.5 32.5v127c0 4.143 3.357 7.5 7.5 7.5z"/></g></g></svg>