<svg id="Capa_1" enable-background="new 0 0 512 512" height="512" viewBox="0 0 512 512" width="512" xmlns="http://www.w3.org/2000/svg"><g><g><g><path d="m429.5 98.5h-197c-2.76 0-5-2.24-5-5v-20c0-13.81-11.19-25-25-25h-170c-13.81 0-25 11.19-25 25v365c0 13.81 11.19 25 25 25h397c13.807 0 25-11.193 25-25v-315c0-13.81-11.19-25-25-25z" fill="#f3d332"/><path d="m454.5 164.5v274c0 13.81-11.19 25-25 25h-397c-12.1 0-22.18-8.59-24.5-20h14.5c1.81 0 2.99-.92 3.54-1.46.54-.55 1.46-1.73 1.46-3.54v-229c0-24.81 20.19-45 45-45z" fill="#dbb72b"/><path d="m504.5 219.5v219c0 13.81-11.19 25-25 25h-447c6.9 0 13.16-2.8 17.68-7.32s7.32-10.78 7.32-17.68v-219c0-13.81 11.19-25 25-25h397c13.81 0 25 11.19 25 25z" fill="#faf063"/></g><g fill="#b9a1d3"><path d="m227.5 360.5h-30v-34.5h30c2.761 0 5 2.239 5 5v24.5c0 2.761-2.239 5-5 5z"/><path d="m197.5 395h-30c-2.761 0-5-2.239-5-5v-24.5c0-2.761 2.239-5 5-5h30z"/><path d="m227.5 429.5h-30v-34.5h30c2.761 0 5 2.239 5 5v24.5c0 2.761-2.239 5-5 5z"/><path d="m197.5 463.5h-30c-2.761 0-5-2.239-5-5v-24c0-2.761 2.239-5 5-5h30z"/></g><path d="m181 360.5h16.5v34.5h-16.5z" fill="#9573bb"/><path d="m181 429.5h16.5v34h-16.5z" fill="#9573bb"/><path d="m197.5 326h16.5v34.5h-16.5z" fill="#9573bb"/><path d="m197.5 395h16.5v34.5h-16.5z" fill="#9573bb"/><path d="m190 271.574h15v191.926h-15z" fill="#b9a1d3"/><path d="m197.992 291.699c-17.98 0-31.715-16.083-28.936-33.883l6.938-44.452c1.695-10.859 11.029-18.863 21.998-18.863 10.968 0 20.303 8.004 21.998 18.863l6.938 44.452c2.778 17.8-10.956 33.883-28.936 33.883z" fill="#b9a1d3"/><path d="m221.23 280.21c-5.31 6.94-13.68 11.49-23.24 11.49-17.98 0-31.71-16.08-28.93-33.88l6.93-44.46c1.44-9.19 8.34-16.33 17.07-18.31-1.53 2.47-2.6 5.28-3.07 8.31l-6.93 44.46c-2.78 17.8 10.95 33.88 28.93 33.88 3.24 0 6.35-.52 9.24-1.49z" fill="#9573bb"/></g><g><path d="m479.5 187h-17.5v-63.5c0-17.921-14.579-32.5-32.5-32.5h-33.776c-4.143 0-7.5 3.357-7.5 7.5s3.357 7.5 7.5 7.5h33.776c9.649 0 17.5 7.851 17.5 17.5v63.5h-364.5c-17.921 0-32.5 14.579-32.5 32.5v219c0 9.649-7.851 17.5-17.5 17.5s-17.5-7.851-17.5-17.5v-301.206c0-4.143-3.357-7.5-7.5-7.5s-7.5 3.357-7.5 7.5v301.206c0 17.921 14.579 32.5 32.5 32.5h130 35 213.856c4.143 0 7.5-3.357 7.5-7.5s-3.357-7.5-7.5-7.5h-206.356v-19h27.5c4.143 0 7.5-3.357 7.5-7.5v-34.5c0-4.143-3.357-7.5-7.5-7.5h-27.5v-19.5h27.5c4.143 0 7.5-3.357 7.5-7.5v-34.5c0-4.143-3.357-7.5-7.5-7.5h-27.5v-19.968c7.592-1.445 14.495-5.233 19.9-11.035 6.939-7.448 10.51-17.521 9.794-27.633-.293-4.132-3.891-7.242-8.011-6.952-4.132.293-7.244 3.879-6.952 8.011.423 5.976-1.693 11.935-5.806 16.349-8.409 9.444-24.467 9.048-32.489-.695-4.145-4.844-5.956-11.234-4.971-17.532l6.938-44.362c1.131-7.233 7.266-12.483 14.587-12.483 7.322 0 13.457 5.25 14.588 12.484l1.92 12.272c.64 4.092 4.471 6.893 8.569 6.251 4.093-.641 6.891-4.477 6.251-8.569l-1.92-12.271c-.588-3.76-1.851-7.25-3.647-10.365h255.749c9.649 0 17.5 7.851 17.5 17.5v219c0 9.649-7.851 17.5-17.5 17.5h-33.144c-4.143 0-7.5 3.357-7.5 7.5s3.357 7.5 7.5 7.5h33.144c17.921 0 32.5-14.579 32.5-32.5v-219c0-17.923-14.579-32.502-32.5-32.502zm-309.5 269v-19h20v19zm20-68.5h-20v-19.5h20zm35 34.5h-20v-19.5h20zm0-69h-20v-19.5h20zm-54.96-66.672c5.234 6.116 12.251 10.28 19.96 11.993v54.679h-27.5c-4.143 0-7.5 3.357-7.5 7.5v34.5c0 4.143 3.357 7.5 7.5 7.5h27.5v19.5h-27.5c-4.143 0-7.5 3.357-7.5 7.5v26.5h-95.135c3.244-5.056 5.135-11.059 5.135-17.5v-219c0-9.649 7.851-17.5 17.5-17.5h89.731c-1.797 3.115-3.059 6.605-3.647 10.364l-6.938 44.361c-1.664 10.635 1.395 21.424 8.394 29.603z"/><path d="m7.5 109.794c4.143 0 7.5-3.357 7.5-7.5v-28.794c0-9.649 7.851-17.5 17.5-17.5h170c9.649 0 17.5 7.851 17.5 17.5v20c0 6.893 5.607 12.5 12.5 12.5h128.224c4.143 0 7.5-3.357 7.5-7.5s-3.357-7.5-7.5-7.5h-125.724v-17.5c0-17.921-14.579-32.5-32.5-32.5h-170c-17.921 0-32.5 14.579-32.5 32.5v28.794c0 4.143 3.357 7.5 7.5 7.5z"/></g></g></svg>