<svg id="Capa_1" enable-background="new 0 0 512 512" height="512" viewBox="0 0 512 512" width="512" xmlns="http://www.w3.org/2000/svg"><g><g><path d="m429.5 98.5h-197c-2.76 0-5-2.24-5-5v-20c0-13.81-11.19-25-25-25h-170c-13.81 0-25 11.19-25 25v365c0 13.81 11.19 25 25 25h397c13.807 0 25-11.193 25-25v-315c0-13.81-11.19-25-25-25z" fill="#f3d332"/><path d="m454.5 164.5v274c0 13.81-11.19 25-25 25h-397c-12.1 0-22.18-8.59-24.5-20h14.5c1.81 0 2.99-.92 3.54-1.46.54-.55 1.46-1.73 1.46-3.54v-229c0-24.81 20.19-45 45-45z" fill="#dbb72b"/><path d="m504.5 219.5v219c0 13.81-11.19 25-25 25h-447c6.9 0 13.16-2.8 17.68-7.32s7.32-10.78 7.32-17.68v-219c0-13.81 11.19-25 25-25h397c13.81 0 25 11.19 25 25z" fill="#faf063"/><path d="m205.571 406.325c-7.361-.014-20.029-1.994-26.216-6.027-11.043-7.198-18.355-19.743-18.355-34.018 0-20.384 14.91-37.239 34.3-40.038.596-43.314 35.493-78.242 78.462-78.242 34.272 0 63.407 22.221 74.102 53.192.316-.006.628-.024.945-.024 28.824 0 52.19 23.632 52.19 52.783 0 27.422-20.68 49.946-47.126 52.523-1.087.106-148.302-.149-148.302-.149z" fill="#9ec8fc"/><path d="m329.62 271.63c-10.79-5.52-23.02-8.63-35.98-8.63-42.142 0-76.605 32.912-79.074 74.44-.13 2.184-1.636 4.05-3.761 4.571-17.289 4.239-30.115 19.838-30.115 38.44 0 8.81 2.88 16.95 7.75 23.53-3.53-.94-6.76-2.16-9.08-3.68-11.05-7.2-18.36-19.74-18.36-34.02 0-20.38 14.91-37.24 34.3-40.04.6-43.31 35.49-78.24 78.46-78.24 21.86-.001 41.64 9.039 55.86 23.629z" fill="#62a4fb"/></g><g><path d="m196.372 333.664c3.65-.527 6.376-3.631 6.427-7.319.537-39.064 32.371-70.845 70.963-70.845 30.14 0 57.07 19.346 67.014 48.141 1.06 3.071 3.949 5.086 7.229 5.051l.506-.015c.1-.004.199-.009.3-.009 19.207 0 36.229 12.381 42.36 30.808 1.307 3.931 5.552 6.059 9.483 4.749 3.931-1.307 6.057-5.554 4.749-9.483-7.715-23.193-28.418-39.202-52.316-40.92-13.295-32.103-44.539-53.321-79.324-53.321-22.769 0-44.226 8.903-60.42 25.07-14.736 14.712-23.578 33.903-25.257 54.563-20.096 5.75-34.585 24.582-34.585 46.146 0 16.354 8.135 31.42 21.76 40.302 8.112 5.289 22.563 7.229 30.299 7.244 76.143.132 113.261.17 131.421.17 17.04 0 17.392-.033 17.622-.056 22.76-2.219 42.515-17.689 50.328-39.413 1.401-3.897-.621-8.193-4.52-9.596-3.893-1.402-8.193.62-9.596 4.52-5.831 16.213-20.496 27.78-37.4 29.533-5.809.062-98.777-.073-147.829-.158-6.999-.013-17.811-1.991-22.134-4.811-9.362-6.103-14.951-16.471-14.951-27.735-.001-16.301 11.981-30.322 27.871-32.616z"/><path d="m411.596 456h-351.731c3.244-5.056 5.135-11.059 5.135-17.5v-157.516c0-4.143-3.357-7.5-7.5-7.5s-7.5 3.357-7.5 7.5v157.516c0 9.649-7.851 17.5-17.5 17.5s-17.5-7.851-17.5-17.5v-365c0-9.649 7.851-17.5 17.5-17.5h43.639c4.143 0 7.5-3.357 7.5-7.5s-3.357-7.5-7.5-7.5h-43.639c-17.921 0-32.5 14.579-32.5 32.5v365c0 17.921 14.579 32.5 32.5 32.5h379.096c4.143 0 7.5-3.357 7.5-7.5s-3.358-7.5-7.5-7.5z"/><path d="m479.5 187h-17.5v-63.5c0-17.921-14.579-32.5-32.5-32.5h-194.5v-17.5c0-17.921-14.579-32.5-32.5-32.5h-91.361c-4.143 0-7.5 3.357-7.5 7.5s3.357 7.5 7.5 7.5h91.361c9.649 0 17.5 7.851 17.5 17.5v20c0 6.893 5.607 12.5 12.5 12.5h197c9.649 0 17.5 7.851 17.5 17.5v63.5h-364.5c-17.921 0-32.5 14.579-32.5 32.5v26.484c0 4.143 3.357 7.5 7.5 7.5s7.5-3.357 7.5-7.5v-26.484c0-9.649 7.851-17.5 17.5-17.5h397c9.649 0 17.5 7.851 17.5 17.5v219c0 9.649-7.851 17.5-17.5 17.5h-31.139c-4.143 0-7.5 3.357-7.5 7.5s3.357 7.5 7.5 7.5h31.139c17.921 0 32.5-14.579 32.5-32.5v-219c0-17.921-14.579-32.5-32.5-32.5z"/></g></g></svg>