<svg id="Capa_1" enable-background="new 0 0 512 512" height="512" viewBox="0 0 512 512" width="512" xmlns="http://www.w3.org/2000/svg"><g><g><path d="m429.5 98.5h-197c-2.76 0-5-2.24-5-5v-20c0-13.81-11.19-25-25-25h-170c-13.81 0-25 11.19-25 25v365c0 13.81 11.19 25 25 25h397c13.807 0 25-11.193 25-25v-315c0-13.81-11.19-25-25-25z" fill="#f3d332"/><path d="m454.5 164.5v274c0 13.81-11.19 25-25 25h-397c-12.1 0-22.18-8.59-24.5-20h14.5c1.81 0 2.99-.92 3.54-1.46.54-.55 1.46-1.73 1.46-3.54v-229c0-24.81 20.19-45 45-45z" fill="#dbb72b"/><path d="m504.5 219.5v219c0 13.81-11.19 25-25 25h-447c6.9 0 13.16-2.8 17.68-7.32s7.32-10.78 7.32-17.68v-219c0-13.81 11.19-25 25-25h397c13.81 0 25 11.19 25 25z" fill="#faf063"/><path d="m356.13 378.91c-6.07 8-13.27 15.11-21.36 21.08l-22.38-22.38 21.22-21.22z" fill="#b9a1d3"/><path d="m333.606 356.394 46 46c5.858 5.857 5.858 15.355 0 21.213-2.928 2.928-6.767 4.393-10.606 4.393s-7.678-1.465-10.606-4.394l-46-46z" fill="#a29aa5"/><path d="m356.13 378.91c-6.07 8-13.27 15.11-21.36 21.08l-22.38-22.38 21.22-21.22z" fill="#766d78"/><circle cx="272.5" cy="315.5" fill="#a29aa5" r="85"/><circle cx="272.5" cy="315.5" fill="#f9f8f9" r="55"/><path d="m320.09 343.09c-9.52 16.39-27.27 27.41-47.59 27.41-30.38 0-55-24.62-55-55 0-20.32 11.02-38.07 27.41-47.59-4.71 8.11-7.41 17.53-7.41 27.59 0 30.38 24.62 55 55 55 10.06 0 19.48-2.7 27.59-7.41z" fill="#e3e0e4"/></g><g><path d="m272.5 223c-51.005 0-92.5 41.495-92.5 92.5s41.495 92.5 92.5 92.5c17.101 0 33.129-4.67 46.886-12.794l33.704 33.704c8.375 8.728 23.444 8.728 31.819 0 8.729-8.376 8.729-23.445 0-31.82l-33.451-33.451c8.587-14.033 13.542-30.518 13.542-48.139 0-51.005-41.495-92.5-92.5-92.5zm-77.5 92.5c0-42.733 34.767-77.5 77.5-77.5s77.5 34.767 77.5 77.5-34.767 77.5-77.5 77.5-77.5-34.767-77.5-77.5zm179.303 92.197c2.91 2.791 2.91 7.815 0 10.605-2.793 2.91-7.814 2.91-10.606 0l-31.883-31.883c3.839-3.216 7.416-6.734 10.689-10.522z"/><path d="m310.194 265.643c-3.303-2.5-8.007-1.849-10.507 1.452-2.5 3.303-1.85 8.007 1.452 10.507 11.987 9.074 18.861 22.887 18.861 37.898 0 26.191-21.309 47.5-47.5 47.5s-47.5-21.309-47.5-47.5 21.309-47.5 47.5-47.5c4.142 0 7.5-3.357 7.5-7.5s-3.358-7.5-7.5-7.5c-34.462 0-62.5 28.037-62.5 62.5s28.038 62.5 62.5 62.5 62.5-28.037 62.5-62.5c0-19.75-9.042-37.922-24.806-49.857z"/><path d="m504.5 250.5c4.142 0 7.5-3.357 7.5-7.5v-23.5c0-17.921-14.58-32.5-32.5-32.5h-17.5v-63.5c0-17.921-14.58-32.5-32.5-32.5h-194.5v-17.5c0-17.921-14.58-32.5-32.5-32.5h-28.925c-4.142 0-7.5 3.357-7.5 7.5s3.358 7.5 7.5 7.5h28.925c9.649 0 17.5 7.851 17.5 17.5v20c0 6.893 5.607 12.5 12.5 12.5h197c9.649 0 17.5 7.851 17.5 17.5v63.5h-364.5c-17.92 0-32.5 14.579-32.5 32.5v219c0 9.649-7.851 17.5-17.5 17.5s-17.5-7.851-17.5-17.5v-29.947c0-4.143-3.358-7.5-7.5-7.5s-7.5 3.357-7.5 7.5v29.947c0 17.921 14.58 32.5 32.5 32.5h447c17.92 0 32.5-14.579 32.5-32.5v-160.5c0-4.143-3.358-7.5-7.5-7.5s-7.5 3.357-7.5 7.5v160.5c0 9.649-7.851 17.5-17.5 17.5h-419.635c3.244-5.056 5.135-11.059 5.135-17.5v-219c0-9.649 7.851-17.5 17.5-17.5h397c9.649 0 17.5 7.851 17.5 17.5v23.5c0 4.143 3.358 7.5 7.5 7.5z"/><path d="m7.5 381.053c4.142 0 7.5-3.357 7.5-7.5v-300.053c0-9.649 7.851-17.5 17.5-17.5h106.075c4.142 0 7.5-3.357 7.5-7.5s-3.358-7.5-7.5-7.5h-106.075c-17.92 0-32.5 14.579-32.5 32.5v300.053c0 4.142 3.358 7.5 7.5 7.5z"/></g></g></svg>