<svg id="Capa_1" enable-background="new 0 0 512 512" height="512" viewBox="0 0 512 512" width="512" xmlns="http://www.w3.org/2000/svg"><g><g><path d="m429.5 98.5h-197c-2.76 0-5-2.24-5-5v-20c0-13.81-11.19-25-25-25h-170c-13.81 0-25 11.19-25 25v365c0 13.81 11.19 25 25 25h397c13.807 0 25-11.193 25-25v-315c0-13.81-11.19-25-25-25z" fill="#f3d332"/><path d="m454.5 164.5v274c0 13.81-11.19 25-25 25h-397c-12.1 0-22.18-8.59-24.5-20h14.5c1.81 0 2.99-.92 3.54-1.46.54-.55 1.46-1.73 1.46-3.54v-229c0-24.81 20.19-45 45-45z" fill="#dbb72b"/><path d="m504.5 219.5v219c0 13.81-11.19 25-25 25h-447c6.9 0 13.16-2.8 17.68-7.32s7.32-10.78 7.32-17.68v-219c0-13.81 11.19-25 25-25h397c13.81 0 25 11.19 25 25z" fill="#faf063"/><path d="m370.5 396.5h-179c-8.284 0-15 6.716-15 15s6.716 15 15 15h179c8.284 0 15-6.716 15-15s-6.716-15-15-15z" fill="#80e29e"/><path d="m223.44 326.317 49 31c5.01 3.551 12.109 3.551 17.119 0l49-31c6.804-4.727 8.485-14.074 3.758-20.877s-14.071-8.486-20.877-3.758l-25.44 14.629v-67.311c0-8.284-6.716-15-15-15s-15 6.716-15 15v67.311l-25.44-14.628c-6.804-4.729-16.151-3.044-20.877 3.758-4.728 6.802-3.046 16.15 3.757 20.876z" fill="#80e29e"/><g fill="#77d192"><path d="m211.5 426.5h-20c-8.28 0-15-6.72-15-15s6.72-15 15-15h20c-8.28 0-15 6.72-15 15s6.72 15 15 15z"/><path d="m240.56 301.68 9.51 5.47c-6.21-1.74-13.1.53-16.98 6.12-4.78 6.87-3.26 16.23 3.31 21.25l-12.96-8.2c-6.8-4.73-8.48-14.08-3.76-20.88 4.73-6.8 14.08-8.49 20.88-3.76z"/><path d="m281.21 234.01v81.915c0 3.846-4.16 6.252-7.493 4.334l-7.717-4.439v-66.82c0-8.347 6.829-15.109 15.201-14.999.004.004.006.006.009.009z"/></g></g><g><path d="m169 411.5c0 12.406 10.094 22.5 22.5 22.5h116.128c4.143 0 7.5-3.357 7.5-7.5s-3.357-7.5-7.5-7.5h-116.128c-4.136 0-7.5-3.364-7.5-7.5s3.364-7.5 7.5-7.5h179c4.136 0 7.5 3.364 7.5 7.5s-3.364 7.5-7.5 7.5h-27.872c-4.143 0-7.5 3.357-7.5 7.5s3.357 7.5 7.5 7.5h27.872c12.406 0 22.5-10.094 22.5-22.5s-10.094-22.5-22.5-22.5h-179c-12.406 0-22.5 10.094-22.5 22.5z"/><path d="m281 226.5c-12.406 0-22.5 10.094-22.5 22.5v54.347l-13.951-8.021c-9.785-6.874-24.403-4.127-31.025 5.835-7.179 9.878-4.374 24.897 5.907 31.495l48.852 30.906c7.521 5.215 17.914 5.215 25.436 0l48.852-30.906c10.281-6.597 13.086-21.618 5.907-31.494-7.012-10.092-20.862-12.668-31.024-5.837l-13.952 8.022v-54.347c-.002-12.406-10.096-22.5-22.502-22.5zm44.179 81.685c.186-.106.366-.221.541-.343 3.397-2.359 8.079-1.518 10.438 1.879 2.339 3.221 1.505 8.099-1.769 10.359l-48.84 30.899c-.111.07-.22.143-.327.219-2.408 1.707-6.037 1.707-8.445 0-.107-.076-.216-.148-.327-.219l-48.84-30.899c-3.274-2.261-4.107-7.139-1.769-10.36 2.396-3.616 7.657-4.207 10.979-1.535l25.44 14.628c2.32 1.333 5.176 1.329 7.494-.01 2.317-1.341 3.744-3.815 3.744-6.492v-67.311c0-4.136 3.364-7.5 7.5-7.5s7.5 3.364 7.5 7.5v67.311c0 2.677 1.427 5.151 3.744 6.492 2.318 1.34 5.174 1.344 7.494.01z"/><path d="m504.5 281.309c-4.143 0-7.5 3.357-7.5 7.5v149.691c0 9.649-7.851 17.5-17.5 17.5h-419.635c3.244-5.056 5.135-11.059 5.135-17.5v-152.032c0-4.143-3.357-7.5-7.5-7.5s-7.5 3.357-7.5 7.5v152.032c0 9.649-7.851 17.5-17.5 17.5s-17.5-7.851-17.5-17.5v-365c0-9.649 7.851-17.5 17.5-17.5h170c9.649 0 17.5 7.851 17.5 17.5v20c0 6.893 5.607 12.5 12.5 12.5h41.493c4.143 0 7.5-3.357 7.5-7.5s-3.357-7.5-7.5-7.5h-38.993v-17.5c0-17.921-14.579-32.5-32.5-32.5h-170c-17.921 0-32.5 14.579-32.5 32.5v365c0 17.921 14.579 32.5 32.5 32.5h447c17.921 0 32.5-14.579 32.5-32.5v-149.691c0-4.143-3.357-7.5-7.5-7.5z"/><path d="m479.5 187h-17.5v-63.5c0-17.921-14.579-32.5-32.5-32.5h-120.507c-4.143 0-7.5 3.357-7.5 7.5s3.357 7.5 7.5 7.5h120.507c9.649 0 17.5 7.851 17.5 17.5v63.5h-364.5c-17.921 0-32.5 14.579-32.5 32.5v31.968c0 4.143 3.357 7.5 7.5 7.5s7.5-3.357 7.5-7.5v-31.968c0-9.649 7.851-17.5 17.5-17.5h397c9.649 0 17.5 7.851 17.5 17.5v34.309c0 4.143 3.357 7.5 7.5 7.5s7.5-3.357 7.5-7.5v-34.309c0-17.921-14.579-32.5-32.5-32.5z"/></g></g></svg>