<svg id="Capa_1" enable-background="new 0 0 512 512" height="512" viewBox="0 0 512 512" width="512" xmlns="http://www.w3.org/2000/svg"><g><g><path d="m429.5 98.5h-197c-2.76 0-5-2.24-5-5v-20c0-13.81-11.19-25-25-25h-170c-13.81 0-25 11.19-25 25v365c0 13.81 11.19 25 25 25h397c13.807 0 25-11.193 25-25v-315c0-13.81-11.19-25-25-25z" fill="#f3d332"/><path d="m454.5 164.5v274c0 13.81-11.19 25-25 25h-397c-12.1 0-22.18-8.59-24.5-20h14.5c1.81 0 2.99-.92 3.54-1.46.54-.55 1.46-1.73 1.46-3.54v-229c0-24.81 20.19-45 45-45z" fill="#dbb72b"/><path d="m504.5 219.5v219c0 13.81-11.19 25-25 25h-447c6.9 0 13.16-2.8 17.68-7.32s7.32-10.78 7.32-17.68v-219c0-13.81 11.19-25 25-25h397c13.81 0 25 11.19 25 25z" fill="#faf063"/><path d="m304.456 404.526 63.918-63.918c21.051-21.051 21.051-55.182 0-76.233-21.051-21.051-55.182-21.051-76.233 0l-11.141 11.142-11.142-11.142c-21.051-21.051-55.182-21.051-76.233 0-21.051 21.051-21.051 55.182 0 76.233l63.918 63.918c12.955 12.955 33.959 12.955 46.913 0z" fill="#dc4955"/><path d="m300.66 407.8c-12.99 9.57-31.36 8.48-43.12-3.27l-63.91-63.92c-10.53-10.53-15.79-24.32-15.79-38.12 0-13.79 5.26-27.59 15.79-38.12 10.59-10.59 24.5-15.86 38.38-15.79-4.82 2.48-9.34 5.75-13.38 9.79-10.53 10.53-15.79 24.33-15.79 38.12 0 13.8 5.26 27.59 15.79 38.12l63.91 63.92c5.12 5.11 11.49 8.2 18.12 9.27z" fill="#c42430"/></g><g><path d="m316.773 381.602-17.621 17.621c-10.008 10.01-26.297 10.01-36.305 0l-63.919-63.919c-15.521-15.521-18.024-40.057-5.952-58.34 2.282-3.457 1.33-8.109-2.126-10.392-3.458-2.28-8.108-1.33-10.392 2.126-15.98 24.204-12.674 56.676 7.862 77.213l63.919 63.919c7.683 7.682 17.896 11.912 28.76 11.912s21.077-4.23 28.76-11.912l17.621-17.621c2.929-2.93 2.929-7.678 0-10.607-2.929-2.928-7.677-2.928-10.607 0z"/><path d="m330.259 241.086c-16.402 0-31.822 6.388-43.421 17.985l-5.838 5.839-5.838-5.839c-16.681-16.681-40.921-22.313-63.262-14.704-3.921 1.336-6.017 5.597-4.682 9.518 1.336 3.923 5.601 6.015 9.518 4.682 16.889-5.75 35.213-1.494 47.818 11.112l11.142 11.142c2.93 2.928 7.678 2.928 10.607 0l11.142-11.142c8.765-8.766 20.418-13.593 32.813-13.593s24.048 4.827 32.813 13.593c8.765 8.764 13.592 20.417 13.592 32.813s-4.827 24.049-13.592 32.813l-21.549 21.55c-2.929 2.929-2.929 7.678.001 10.606 2.929 2.929 7.677 2.928 10.606-.001l21.549-21.549c11.598-11.598 17.984-27.019 17.984-43.42s-6.387-31.822-17.984-43.42c-11.598-11.597-27.018-17.985-43.419-17.985z"/><path d="m479.5 187h-17.5v-18.691c0-4.143-3.357-7.5-7.5-7.5s-7.5 3.357-7.5 7.5v18.691h-364.5c-17.921 0-32.5 14.579-32.5 32.5v219c0 9.649-7.851 17.5-17.5 17.5s-17.5-7.851-17.5-17.5v-297.639c0-4.143-3.357-7.5-7.5-7.5s-7.5 3.357-7.5 7.5v297.639c0 17.921 14.579 32.5 32.5 32.5h447c17.921 0 32.5-14.579 32.5-32.5v-219c0-17.921-14.579-32.5-32.5-32.5zm17.5 251.5c0 9.649-7.851 17.5-17.5 17.5h-419.624c3.242-5.055 5.124-11.062 5.124-17.5v-219c0-9.649 7.851-17.5 17.5-17.5h397c9.649 0 17.5 7.851 17.5 17.5z"/><path d="m7.5 113.713c4.143 0 7.5-3.357 7.5-7.5v-32.713c0-9.649 7.851-17.5 17.5-17.5h170c9.649 0 17.5 7.851 17.5 17.5v20c0 6.893 5.607 12.5 12.5 12.5h197c9.649 0 17.5 7.851 17.5 17.5v9.809c0 4.143 3.357 7.5 7.5 7.5s7.5-3.357 7.5-7.5v-9.809c0-17.921-14.579-32.5-32.5-32.5h-194.5v-17.5c0-17.921-14.579-32.5-32.5-32.5h-170c-17.921 0-32.5 14.579-32.5 32.5v32.713c0 4.142 3.357 7.5 7.5 7.5z"/></g></g></svg>