<svg id="Capa_1" enable-background="new 0 0 512 512" height="512" viewBox="0 0 512 512" width="512" xmlns="http://www.w3.org/2000/svg"><g><g><path d="m453.31 460.125c0 24.508-19.907 44.375-44.464 44.375h-305.692c-24.557 0-44.464-19.867-44.464-44.375v-408.25c0-24.508 19.907-44.375 44.464-44.375h190.303c8.857 0 17.35 3.516 23.606 9.773l126.505 126.521c6.239 6.239 9.742 14.694 9.742 23.508z" fill="#f9f8f9"/><path d="m133.15 504.5h-30c-24.55 0-44.46-19.87-44.46-44.38v-408.24c0-24.51 19.91-44.38 44.46-44.38h30c-24.55 0-44.46 19.87-44.46 44.38v408.24c0 24.51 19.91 44.38 44.46 44.38z" fill="#e3e0e4"/><path d="m453.31 167.3v16.24h-115.96c-33.12 0-60.06-26.95-60.06-60.07v-115.97h16.17c8.85 0 17.35 3.52 23.6 9.77l126.51 126.52c6.24 6.24 9.74 14.7 9.74 23.51z" fill="#e3e0e4"/><path d="m450.32 153.54h-112.97c-16.6 0-30.06-13.46-30.06-30.07v-112.96c3.61 1.63 6.92 3.91 9.77 6.76l126.51 126.52c2.85 2.85 5.12 6.15 6.75 9.75z" fill="#faf063"/><path d="m435 438.5h-358c-22.091 0-40-17.909-40-40v-146c0-22.091 17.909-40 40-40h358c22.091 0 40 17.909 40 40v146c0 22.091-17.909 40-40 40z" fill="#faf063"/><path d="m102 438.5h-25c-22.09 0-40-17.91-40-40v-146c0-22.09 17.91-40 40-40h25c-22.09 0-40 17.91-40 40v146c0 22.09 17.91 40 40 40z" fill="#f3d332"/></g><g><path d="m37 344.506c4.142 0 7.5-3.357 7.5-7.5v-84.506c0-17.921 14.58-32.5 32.5-32.5h299.958c4.142 0 7.5-3.357 7.5-7.5s-3.358-7.5-7.5-7.5h-299.958c-3.719 0-7.335.443-10.81 1.256v-154.381c0-20.333 16.582-36.875 36.964-36.875h49.346c4.142 0 7.5-3.357 7.5-7.5s-3.358-7.5-7.5-7.5h-49.346c-28.653 0-51.964 23.271-51.964 51.875v160.781c-13.041 8.476-21.69 23.165-21.69 39.844v84.506c0 4.142 3.358 7.5 7.5 7.5z"/><path d="m460.81 212.656v-45.354c0-10.88-4.24-21.111-11.938-28.811l-126.505-126.52c-7.719-7.72-17.986-11.971-28.91-11.971h-105.957c-4.142 0-7.5 3.357-7.5 7.5s3.358 7.5 7.5 7.5h105.957c2.144 0 4.273.274 6.334.798v107.673c0 20.714 16.85 37.566 37.56 37.566h107.694c.505 2.025.765 4.125.765 6.265v38.954c-3.475-.813-7.091-1.256-10.81-1.256h-20.255c-4.142 0-7.5 3.357-7.5 7.5s3.358 7.5 7.5 7.5h20.255c17.92 0 32.5 14.579 32.5 32.5v146c0 17.921-14.58 32.5-32.5 32.5h-358c-17.92 0-32.5-14.579-32.5-32.5v-26.494c0-4.143-3.358-7.5-7.5-7.5s-7.5 3.357-7.5 7.5v26.494c0 16.679 8.649 31.368 21.69 39.844v21.781c0 28.604 23.311 51.875 51.964 51.875h182.251c4.142 0 7.5-3.357 7.5-7.5s-3.358-7.5-7.5-7.5h-182.251c-20.382 0-36.964-16.542-36.964-36.875v-15.381c3.475.813 7.091 1.256 10.81 1.256h358c3.719 0 7.335-.443 10.81-1.256v15.381c0 20.333-16.582 36.875-36.964 36.875h-88.441c-4.142 0-7.5 3.357-7.5 7.5s3.358 7.5 7.5 7.5h88.441c28.653 0 51.964-23.271 51.964-51.875v-21.781c13.041-8.477 21.69-23.165 21.69-39.844v-146c0-16.679-8.649-31.368-21.69-39.844zm-146.018-89.185v-97.862l120.413 120.428h-97.853c-12.44 0-22.56-10.123-22.56-22.566z"/><path d="m278.167 268.504v113.992c0 4.143 3.358 7.5 7.5 7.5s7.5-3.357 7.5-7.5v-113.992c0-4.143-3.358-7.5-7.5-7.5s-7.5 3.357-7.5 7.5z"/><path d="m371.531 276.421c4.142 0 7.5-3.357 7.5-7.5s-3.358-7.5-7.5-7.5h-45.863c-4.142 0-7.5 3.357-7.5 7.5v113.158c0 4.143 3.358 7.5 7.5 7.5s7.5-3.357 7.5-7.5v-50.15h34.72c4.142 0 7.5-3.357 7.5-7.5s-3.358-7.5-7.5-7.5h-34.72v-40.508z"/><path d="m197.465 276.004c9.92 0 19.488 2.921 27.668 8.448 3.433 2.318 8.095 1.416 10.414-2.017 2.319-3.432 1.416-8.094-2.016-10.413-10.67-7.208-23.142-11.019-36.066-11.019-35.563 0-64.496 28.933-64.496 64.496s28.933 64.496 64.496 64.496c17.297 0 31.9-6.732 42.23-19.469 9.332-11.506 14.472-27.497 14.472-45.027 0-4.143-3.358-7.5-7.5-7.5h-34.101c-4.142 0-7.5 3.357-7.5 7.5s3.358 7.5 7.5 7.5h26.207c-2.199 20.785-13.855 41.996-41.308 41.996-27.292 0-49.496-22.204-49.496-49.496s22.204-49.495 49.496-49.495z"/></g></g></svg>