<svg id="Capa_1" enable-background="new 0 0 512 512" height="512" viewBox="0 0 512 512" width="512" xmlns="http://www.w3.org/2000/svg"><g><g><path d="m393.5 151.547v263.953c0 22.091-17.909 40-40 40h-275c-22.091 0-40-17.909-40-40v-368c0-22.091 17.909-40 40-40h171.197c7.968 0 15.608 3.17 21.236 8.809l113.803 114.047c5.612 5.625 8.764 13.246 8.764 21.191z" fill="#f9f8f9"/><path d="m393.5 151.55v17.59h-104.32c-31.45 0-57.04-25.62-57.04-57.1v-104.54h17.56c7.96 0 15.6 3.17 21.23 8.81l113.81 114.05c5.61 5.62 8.76 13.24 8.76 21.19z" fill="#e3e0e4"/><path d="m108.5 455.5h-30c-22.09 0-40-17.91-40-40v-368c0-22.09 17.91-40 40-40h30c-22.09 0-40 17.91-40 40v368c0 22.09 17.91 40 40 40z" fill="#e3e0e4"/><g fill="#a29aa5"><path d="m219.608 157.5h-123.7c-4.142 0-7.5-3.358-7.5-7.5s3.358-7.5 7.5-7.5h123.7c4.142 0 7.5 3.358 7.5 7.5s-3.358 7.5-7.5 7.5z"/><path d="m219.608 337.5h-123.7c-4.142 0-7.5-3.358-7.5-7.5s3.358-7.5 7.5-7.5h123.7c4.142 0 7.5 3.358 7.5 7.5s-3.358 7.5-7.5 7.5z"/><path d="m317.908 217.5h-224c-4.142 0-7.5-3.358-7.5-7.5s3.358-7.5 7.5-7.5h224c4.142 0 7.5 3.358 7.5 7.5s-3.358 7.5-7.5 7.5z"/><path d="m317.908 277.5h-224c-4.142 0-7.5-3.358-7.5-7.5s3.358-7.5 7.5-7.5h224c4.142 0 7.5 3.358 7.5 7.5s-3.358 7.5-7.5 7.5z"/><path d="m390.81 139.14h-101.63c-14.93 0-27.04-12.14-27.04-27.1v-101.82c3.24 1.46 6.23 3.52 8.79 6.09l113.81 114.05c2.55 2.56 4.61 5.54 6.07 8.78z"/></g><ellipse cx="371.989" cy="403" fill="#80e29e" rx="101.511" ry="101.5"/><path d="m453.07 464.07c-18.52 24.56-47.95 40.43-81.08 40.43-56.06 0-101.51-45.44-101.51-101.5 0-33.13 15.87-62.55 40.43-81.07-12.83 16.99-20.43 38.14-20.43 61.07 0 56.06 45.45 101.5 101.51 101.5 22.93 0 44.08-7.6 61.08-20.43z" fill="#77d192"/><path d="m423.124 410.243c-4.008-7.25-13.135-9.881-20.386-5.873l-15.747 8.701v-45.572c0-8.284-6.717-15-15.002-15s-15.002 6.716-15.002 15v45.573l-15.747-8.701c-7.252-4.007-16.378-1.377-20.386 5.873-4.007 7.251-1.377 16.377 5.875 20.384l38.004 21c.091.05.184.093.275.141.139.073.278.146.419.214.167.082.336.158.505.232.125.055.25.111.377.163.198.081.398.156.598.228.099.036.197.073.297.107.24.081.481.153.723.222.064.018.127.038.191.055.287.077.576.144.865.204.023.005.046.011.069.015.971.194 1.95.294 2.924.294l-.001-.003h.015c2.497 0 4.997-.623 7.256-1.872l38.004-21c7.251-4.008 9.881-13.134 5.874-20.385z" fill="#f9f8f9"/></g><g><path d="m38.5 129.5c4.143 0 7.5-3.358 7.5-7.5v-74.5c0-17.92 14.581-32.5 32.504-32.5h171.215c1.687 0 3.339.203 4.946.562v96.474c0 19.08 15.497 34.603 34.546 34.603h96.274c.354 1.595.553 3.235.553 4.908v40.453c0 4.142 3.357 7.5 7.5 7.5s7.5-3.358 7.5-7.5v-40.453c0-10.002-3.892-19.409-10.957-26.488l-113.815-114.047c-7.087-7.101-16.515-11.012-26.547-11.012h-171.215c-26.193 0-47.504 21.309-47.504 47.5v74.5c0 4.142 3.357 7.5 7.5 7.5zm336.956 2.139h-86.245c-10.777 0-19.546-8.793-19.546-19.603v-86.404z"/><path d="m171 448h-92.496c-17.923 0-32.504-14.58-32.504-32.5v-258.5c0-4.142-3.357-7.5-7.5-7.5s-7.5 3.358-7.5 7.5v258.5c0 26.191 21.311 47.5 47.504 47.5h92.496c4.143 0 7.5-3.358 7.5-7.5s-3.357-7.5-7.5-7.5z"/><path d="m95.914 157.5h123.713c4.143 0 7.5-3.358 7.5-7.5s-3.357-7.5-7.5-7.5h-123.713c-4.143 0-7.5 3.358-7.5 7.5s3.357 7.5 7.5 7.5z"/><path d="m95.914 322.5c-4.143 0-7.5 3.358-7.5 7.5s3.357 7.5 7.5 7.5h123.713c4.143 0 7.5-3.358 7.5-7.5s-3.357-7.5-7.5-7.5z"/><path d="m317.938 202.5h-224.025c-4.143 0-7.5 3.358-7.5 7.5s3.357 7.5 7.5 7.5h224.024c4.143 0 7.5-3.358 7.5-7.5s-3.357-7.5-7.499-7.5z"/><path d="m325.438 270c0-4.142-3.357-7.5-7.5-7.5h-224.025c-4.143 0-7.5 3.358-7.5 7.5s3.357 7.5 7.5 7.5h224.024c4.143 0 7.501-3.358 7.501-7.5z"/><path d="m401.038 297.936v-70.936c0-4.142-3.357-7.5-7.5-7.5s-7.5 3.358-7.5 7.5v67.903c-4.6-.594-9.289-.903-14.049-.903-34.387 0-66.05 15.725-86.87 43.142-2.506 3.299-1.862 8.003 1.437 10.509 3.301 2.506 8.005 1.861 10.509-1.438 17.959-23.649 45.268-37.213 74.924-37.213 6.868 0 13.564.747 20.017 2.152.011.002.021.005.032.007 42.237 9.211 73.962 46.888 73.962 91.841 0 51.832-42.173 94-94.011 94s-94.011-42.168-94.011-94c0-9.542 1.423-18.95 4.229-27.965 1.231-3.955-.978-8.159-4.933-9.39-3.956-1.23-8.159.978-9.39 4.932-3.256 10.459-4.906 21.368-4.906 32.423 0 16.037 3.484 31.275 9.731 45h-66.709c-4.143 0-7.5 3.358-7.5 7.5s3.357 7.5 7.5 7.5h75.028c19.528 29.501 53.008 49 90.961 49 60.109 0 109.011-48.897 109.011-109 0-50.048-33.911-92.319-79.962-105.064z"/><path d="m371.989 344.999c-12.407 0-22.502 10.093-22.502 22.5v32.859l-4.619-2.552c-10.857-6.001-24.574-2.048-30.578 8.81-2.907 5.26-3.591 11.338-1.927 17.113s5.479 10.556 10.739 13.463l38.003 21c6.646 3.71 15.127 3.734 21.767 0l38.004-21c5.261-2.907 9.075-7.688 10.739-13.463s.98-11.853-1.928-17.115c-6.003-10.857-19.721-14.81-30.577-8.808l-4.619 2.552v-32.859c0-12.407-10.095-22.5-22.502-22.5zm34.376 65.935c3.617-1.999 8.192-.682 10.194 2.937 2.023 3.489.632 8.315-2.938 10.192l-38.006 21.001c-2.328 1.295-5.291 1.189-7.563-.171l-37.696-20.83c-3.569-1.876-4.96-6.703-2.938-10.19 2.003-3.621 6.577-4.938 10.195-2.938l15.746 8.701c4.749 2.823 11.296-1.04 11.128-6.564v-45.573c0-4.136 3.365-7.5 7.502-7.5s7.502 3.364 7.502 7.5v45.572c-.17 5.534 6.367 9.39 11.127 6.564z"/></g></g></svg>