<svg id="Capa_1" enable-background="new 0 0 512 512" height="512" viewBox="0 0 512 512" width="512" xmlns="http://www.w3.org/2000/svg"><g><g><path d="m453.43 87.39-.27 372.73c0 24.51-19.91 44.38-44.47 44.38h-305.69c-24.55 0-44.46-19.87-44.46-44.38v-373.28z" fill="#9ec8fc"/><g fill="#62a4fb"><path d="m218.53 284.1-31.62-39.13 23.34-18.86-31.62-39.13-23.33 18.85-31.62-39.13 23.33-18.85-31.61-39.14-23.34 18.86-33.52-40.73v-34.96c0-24.51 19.91-44.38 44.46-44.38h310.46c22.11 0 40.02 17.93 40 40.03l-.03 39.86-33.49 40.18-23.34-18.86-31.61 39.14 23.33 18.85-31.62 39.13-23.33-18.85-31.62 39.13 23.34 18.86-31.62 39.13z"/><path d="m133 504.5h-30c-24.55 0-44.46-19.87-44.46-44.38v-373.28l30 29.479v343.801c0 24.51 19.91 44.38 44.46 44.38z"/><path d="m88.54 111.48v22.71c-.85-.45-1.62-1.07-2.27-1.86l-27.73-33.69v-23.6z"/></g><path d="m270.15 265.02-2.58-1.02c-1.36-1.04-3.01-1.59-4.74-1.55l-13.3.59c-1.51.03-2.98.52-4.2 1.4l-1.47.55c3.7-2.71 8.25-4.29 13.13-4.29 4.69 0 9.08 1.46 12.7 3.98.16.11.31.21.46.34z" fill="#9ec8fc"/><path d="m270.15 265.02-2.58-1.02c-1.36-1.04-3.01-1.59-4.74-1.55l-13.3.59c-1.51.03-2.98.52-4.2 1.4l-1.47.55c3.7-2.71 8.25-4.29 13.13-4.29 4.69 0 9.08 1.46 12.7 3.98.16.11.31.21.46.34z" fill="#62a4fb"/><path d="m453.44 75.68-.01 11.71-.01 11.74-27.72 33.24c-2.63 3.14-7.29 3.6-10.47 1.03l-17.51-14.14-22.19 27.47 17.5 14.14c3.23 2.6 3.73 7.32 1.13 10.54l-31.62 39.14c-1.25 1.54-3.07 2.53-5.04 2.74-1.98.22-3.96-.37-5.51-1.62l-17.5-14.14-22.19 27.46 17.5 14.14c1.55 1.25 2.54 3.07 2.75 5.05.21 1.97-.38 3.95-1.63 5.5l-31.877 38.979c-2.55 3.17-6.524 3.825-9.754 1.345l-8.757-12.494-43.574.469-14.058 11.447c-1.32.95-2.85 1.617-4.37 1.617-2.19 0-4.36-.402-5.83-2.232l-31.62-39.13c-1.25-1.55-1.84-3.53-1.63-5.5.21-1.98 1.2-3.8 2.75-5.05l17.5-14.14-22.19-27.46-17.5 14.14c-1.55 1.25-3.54 1.83-5.51 1.62s-3.79-1.2-5.04-2.74l-31.62-39.14c-2.6-3.22-2.1-7.94 1.13-10.54l17.5-14.14-22.19-27.47-17.51 14.139c-3.19 2.58-7.88 2.11-10.5-1.07l-27.73-33.69v-23.6l34.59 42.02 17.55-14.18c1.55-1.25 3.53-1.84 5.51-1.63s3.79 1.2 5.04 2.75l31.62 39.13c2.6 3.23 2.1 7.95-1.12 10.55l-17.5 14.14 22.19 27.47 17.5-14.14c1.54-1.25 3.53-1.84 5.5-1.63 1.98.21 3.79 1.2 5.04 2.75l31.62 39.13c1.25 1.55 1.84 3.53 1.63 5.51-.21 1.97-1.2 3.79-2.75 5.04l-17.5 14.14 22.45 27.79 25.422-9.44c1.22-.88 2.69-1.37 4.2-1.4l13.3-.589c1.73-.04 3.38.51 4.74 1.55l24.658 9.7 22.31-27.61-17.5-14.14c-1.55-1.25-2.54-3.07-2.75-5.04-.21-1.98.38-3.96 1.63-5.51l31.62-39.13c1.25-1.55 3.06-2.54 5.04-2.75 1.97-.21 3.96.38 5.5 1.63l17.5 14.14 22.19-27.47-17.5-14.14c-3.22-2.6-3.72-7.32-1.12-10.55l31.62-39.131c1.25-1.55 3.06-2.54 5.04-2.75 1.97-.21 3.96.38 5.51 1.63l17.59 14.21z" fill="#f9f8f9"/><path d="m88.54 111.48v22.71c-.85-.45-1.62-1.07-2.27-1.86l-27.73-33.69v-23.6z" fill="#e3e0e4"/><path d="m256.99 357.7c-17.98 0-31.71-16.05-28.93-33.82l6.93-44.36c.9-5.74 3.95-10.68 8.24-14.06 3.81-2.99 8.6-4.76 13.76-4.76 4.69 0 9.08 1.46 12.7 3.98.62.42 1.21.88 1.78 1.37.32.27.62.55.92.83 3.42 3.28 5.82 7.66 6.6 12.64l6.94 44.36c2.78 17.77-10.96 33.82-28.94 33.82z" fill="#f9f8f9"/><path d="m283.79 340.23c-4.5 10.19-14.68 17.47-26.8 17.47-17.98 0-31.71-16.05-28.93-33.82l6.93-44.36c.9-5.74 3.95-10.68 8.24-14.06 2.19-1.72 4.7-3.03 7.42-3.84-.28.94-.5 1.91-.66 2.9l-6.93 44.36c-2.78 17.77 10.95 33.82 28.93 33.82 4.22 0 8.21-.88 11.8-2.47z" fill="#e3e0e4"/></g><g><path d="m460.962 47.535c.01-12.694-4.927-24.631-13.899-33.61-8.974-8.98-20.907-13.925-33.601-13.925h-245.079c-4.143 0-7.5 3.357-7.5 7.5s3.357 7.5 7.5 7.5h245.079c8.686 0 16.851 3.384 22.99 9.527 6.139 6.144 9.517 14.311 9.51 22.996l-.027 37.155-27.027 32.413-17.592-14.213c-3.086-2.597-8.077-2.062-10.547 1.121l-31.616 39.135c-2.604 3.222-2.102 7.943 1.121 10.547l17.501 14.14-22.19 27.466-17.501-14.14c-3.084-2.59-8.078-2.065-10.548 1.121 0 0-31.617 39.134-31.617 39.134-2.593 3.082-2.064 8.079 1.121 10.547l17.502 14.14-22.167 27.437-14.557-11.882c-5.384-5.266-12.744-8.444-20.826-8.444-7.346 0-14.098 2.623-19.311 7.055l-17.877 13.491-22.345-27.656 17.502-14.14c3.183-2.471 3.716-7.462 1.121-10.547 0 0-31.617-39.134-31.617-39.134-2.469-3.182-7.466-3.719-10.548-1.121l-17.501 14.14-22.19-27.466 17.501-14.14c3.223-2.604 3.724-7.325 1.121-10.547l-31.616-39.135c-2.469-3.185-7.463-3.713-10.547-1.121l-17.556 14.183-27.091-32.916v-32.271c0-20.333 16.582-36.875 36.964-36.875h30.381c4.143 0 7.5-3.357 7.5-7.5s-3.357-7.5-7.5-7.5h-30.381c-28.653 0-51.964 23.271-51.964 51.875v408.25c0 28.604 23.311 51.875 51.964 51.875h251.03c4.143 0 7.5-3.357 7.5-7.5s-3.357-7.5-7.5-7.5h-251.03c-20.382 0-36.964-16.542-36.964-36.875v-352.374l20.232 24.581c2.616 3.179 7.305 3.651 10.504 1.067l17.502-14.141 22.19 27.467-17.501 14.14c-3.223 2.604-3.725 7.325-1.121 10.547l31.617 39.135c2.47 3.184 7.463 3.717 10.548 1.121l17.501-14.141 22.19 27.467-17.502 14.14c-3.184 2.47-3.715 7.463-1.121 10.547l31.617 39.134c3.748 4.775 9.766 2.547 13.417-1.04l-5.467 34.951c-2.012 12.859 3.013 25.968 13.11 34.211 3.212 2.623 7.934 2.142 10.554-1.066 2.619-3.209 2.141-7.934-1.067-10.554-6.079-4.962-8.986-12.54-7.776-20.272l6.938-44.362c1.12-7.234 7.296-12.475 14.587-12.483 7.204-.019 13.512 5.335 14.588 12.484l6.938 44.361c1.312 8.384-2.234 16.575-9.253 21.379-3.419 2.34-4.293 7.007-1.954 10.425 2.354 3.444 7.048 4.276 10.426 1.954 11.836-8.101 17.814-21.924 15.602-36.076l-5.209-33.302c3.076 3.057 8.498 2.855 11.176-.609l31.617-39.134c2.594-3.084 2.063-8.077-1.121-10.547l-17.502-14.14 22.19-27.467 17.501 14.141c3.088 2.598 8.076 2.062 10.548-1.121l31.617-39.135c2.604-3.222 2.102-7.943-1.121-10.547l-17.501-14.14 22.19-27.467 17.502 14.141c3.187 2.573 7.849 2.115 10.473-1.031l20.219-24.249-.073 99.768c-.003 4.143 3.353 7.503 7.494 7.506h.006c4.14 0 7.497-3.354 7.5-7.494.001-1.769.119-160.365.119-160.365z"/><path d="m453.324 235.117c-.002 0-.004 0-.006 0-4.14 0-7.497 3.354-7.5 7.494l-.16 217.514c0 20.333-16.582 36.875-36.964 36.875h-19.662c-4.143 0-7.5 3.357-7.5 7.5s3.357 7.5 7.5 7.5h19.662c28.653 0 51.964-23.271 51.964-51.869l.16-217.508c.003-4.143-3.352-7.503-7.494-7.506z"/></g></g></svg>