<svg id="Capa_1" enable-background="new 0 0 512.006 512.006" height="512" viewBox="0 0 512.006 512.006" width="512" xmlns="http://www.w3.org/2000/svg"><g><g><path d="m68.224 467.5v-400c0-33.137 26.863-60 60-60h300.566c11.046 0 20 8.954 20 20v408.819z" fill="#faf063"/><path d="m158.223 7.5c-33.14 0-60 26.86-60 60v397.54l-30 2.46v-400c0-33.14 26.86-60 60-60z" fill="#f3d332"/><path d="m448.163 497.1c.43.78.62 1.6.62 2.4 0 2.61-2.09 5-5 5h-339.06c-20.16 0-36.5-16.34-36.5-36.5 0-10.08 4.08-19.2 10.69-25.81s15.73-10.69 25.81-10.69h339.06c3.8 0 6.21 4.07 4.38 7.4-4.96 9.06-7.45 19.08-7.45 29.1s2.49 20.04 7.45 29.1z" fill="#f9f8f9"/><path d="m448.163 438.9c-3.89 7.1-6.26 14.78-7.09 22.6h-327.923c-8.3 0-15.022 6.74-15 15.04l.073 27.38c-17.06-3.06-30-17.98-30-35.92 0-10.08 4.08-19.2 10.69-25.81s15.73-10.69 25.81-10.69h339.06c3.8 0 6.21 4.07 4.38 7.4z" fill="#e3e0e4"/><path d="m435.003 332.5h-358c-22.091 0-40-17.909-40-40v-146c0-22.091 17.909-40 40-40h358c22.091 0 40 17.909 40 40v146c0 22.091-17.908 40-40 40z" fill="#dc4955"/><path d="m102.003 332.5h-25c-22.09 0-40-17.91-40-40v-146c0-22.09 17.91-40 40-40h25c-22.09 0-40 17.91-40 40v146c0 22.09 17.91 40 40 40z" fill="#c42430"/></g><g><path d="m475.003 178.791c4.142 0 7.5-3.357 7.5-7.5v-24.791c0-18.541-10.684-34.624-26.213-42.444v-76.556c0-15.163-12.336-27.5-27.5-27.5h-32.145c-4.142 0-7.5 3.357-7.5 7.5s3.358 7.5 7.5 7.5h32.145c6.893 0 12.5 5.607 12.5 12.5v71.929c-2.059-.273-4.154-.429-6.287-.429h-358c-.429 0-.853.021-1.279.032v-31.532c0-28.948 23.551-52.5 52.5-52.5h233.971c4.142 0 7.5-3.357 7.5-7.5s-3.358-7.5-7.5-7.5h-233.971c-37.22 0-67.5 30.28-67.5 67.5v34.375c-18.198 6.659-31.221 24.149-31.221 44.625v146c0 20.476 13.023 37.966 31.221 44.625v130.375c0 .057.007.111.008.167-.001.111-.008.221-.008.333 0 24.262 19.738 44 44 44h38.749c4.142 0 7.5-3.357 7.5-7.5s-3.358-7.5-7.5-7.5h-38.749c-15.991 0-29-13.01-29-29s13.009-29 29-29h334.979c-8.706 18.43-8.705 39.571 0 58h-261.231c-4.142 0-7.5 3.357-7.5 7.5s3.358 7.5 7.5 7.5h265.31c9.211.306 15.657-10.577 10.962-18.506-8.747-15.964-8.747-35.024 0-50.988 1.088-1.986 1.598-4.155 1.545-6.313v-101.25c15.529-7.82 26.213-23.903 26.213-42.444v-85.202c0-4.143-3.358-7.5-7.5-7.5s-7.5 3.357-7.5 7.5v85.203c0 17.921-14.58 32.5-32.5 32.5h-256.233c-9.734-.142-9.729 15.144 0 15h256.234c2.132 0 4.228-.155 6.287-.429v84.429h-336.566c-11.102 0-21.25 4.142-29 10.951v-94.983c.426.011.85.032 1.279.032h66.766c9.734.142 9.729-15.144 0-15h-66.766c-17.92 0-32.5-14.579-32.5-32.5v-146c0-15.018 10.241-27.683 24.104-31.395 2.822-.488 5.447-1.236 8.396-1.105h358c17.92 0 32.5 14.579 32.5 32.5v24.791c0 4.143 3.358 7.5 7.5 7.5z"/><path d="m269.963 155.004h-33.113c-4.142 0-7.5 3.357-7.5 7.5v52.49.085 61.417c-.08 4.041 3.493 7.598 7.533 7.5.305-.001 30.57-.135 38.862-.135 21.055 0 38.184-17.129 38.184-38.184 0-14.392-8.006-26.946-19.796-33.452 5.91-6.079 9.56-14.365 9.56-23.492 0-18.598-15.132-33.729-33.73-33.729zm0 15c10.328 0 18.73 8.402 18.73 18.729s-8.402 18.729-18.73 18.729c-2.428 0-7.028.014-12.043.031h-13.57v-37.49h25.613zm5.782 98.857c-5.714 0-21.781.063-31.395.103v-46.417c3.956-.016 8.942-.036 13.573-.053h17.822c12.784 0 23.184 10.4 23.184 23.184s-10.4 23.183-23.184 23.183z"/><path d="m165.943 170.004c9.92 0 19.488 2.921 27.668 8.448 3.432 2.318 8.095 1.416 10.414-2.017 2.319-3.432 1.416-8.094-2.016-10.413-10.67-7.208-23.142-11.019-36.066-11.019-35.563 0-64.497 28.933-64.497 64.496s28.933 64.496 64.497 64.496c14.019 0 26.561-4.57 36.27-13.216 1.907-1.698 3.719-3.567 5.386-5.557 2.661-3.174 2.244-7.904-.93-10.565-3.175-2.662-7.905-2.246-10.566.931-1.201 1.432-2.501 2.774-3.866 3.99-7.017 6.248-15.863 9.417-26.293 9.417-27.292 0-49.497-22.204-49.497-49.496s22.204-49.495 49.496-49.495z"/><path d="m410.56 192.129c0-20.471-17.407-37.125-38.802-37.125h-30.292c-.006 0-.012.001-.018.001s-.012-.001-.018-.001c-4.142 0-7.5 3.357-7.5 7.5v113.992c0 4.143 3.358 7.5 7.5 7.5s7.5-3.357 7.5-7.5v-47.151c.834-.005 1.714-.009 2.628-.014l45.873 52.12c2.745 3.118 7.488 3.403 10.585.675 3.109-2.736 3.412-7.476.675-10.585l-37.217-42.286h.285c21.394 0 38.801-16.654 38.801-37.126zm-38.802-22.125c12.902 0 23.802 10.132 23.802 22.125s-10.9 22.126-23.802 22.126c-5.192 0-15.521.051-22.625.089-.04-7.022-.091-17.169-.091-22.215 0-4.25-.03-14.826-.052-22.125z"/></g></g></svg>