<svg id="Capa_1" enable-background="new 0 0 512 512" height="512" viewBox="0 0 512 512" width="512" xmlns="http://www.w3.org/2000/svg"><g><g><path d="m68.221 467.5v-400c0-33.137 26.863-60 60-60h300.566c11.046 0 20 8.954 20 20v408.819z" fill="#faf063"/><path d="m158.22 7.5c-33.14 0-60 26.86-60 60v397.54l-30 2.46v-400c0-33.14 26.86-60 60-60z" fill="#f3d332"/><path d="m448.16 497.1c.43.78.62 1.6.62 2.4 0 2.61-2.09 5-5 5h-339.06c-20.16 0-36.5-16.34-36.5-36.5 0-10.08 4.08-19.2 10.69-25.81s15.73-10.69 25.81-10.69h339.06c3.8 0 6.21 4.07 4.38 7.4-4.96 9.06-7.45 19.08-7.45 29.1s2.49 20.04 7.45 29.1z" fill="#f9f8f9"/><path d="m448.16 438.9c-3.89 7.1-6.26 14.78-7.09 22.6h-327.923c-8.3 0-15.022 6.74-15 15.04l.073 27.38c-17.06-3.06-30-17.98-30-35.92 0-10.08 4.08-19.2 10.69-25.81s15.73-10.69 25.81-10.69h339.06c3.8 0 6.21 4.07 4.38 7.4z" fill="#e3e0e4"/><path d="m435 332.5h-358c-22.091 0-40-17.909-40-40v-146c0-22.091 17.909-40 40-40h358c22.091 0 40 17.909 40 40v146c0 22.091-17.909 40-40 40z" fill="#9ec8fc"/><path d="m102 332.5h-25c-22.09 0-40-17.91-40-40v-146c0-22.09 17.91-40 40-40h25c-22.09 0-40 17.91-40 40v146c0 22.09 17.91 40 40 40z" fill="#62a4fb"/></g><g><path d="m456.286 104.056v-76.556c0-15.163-12.337-27.5-27.5-27.5h-300.565c-37.22 0-67.5 30.28-67.5 67.5 0 4.143 3.357 7.5 7.5 7.5s7.5-3.357 7.5-7.5c0-28.948 23.552-52.5 52.5-52.5h300.565c6.893 0 12.5 5.607 12.5 12.5v71.929c-2.058-.274-4.154-.429-6.286-.429h-358c-26.191 0-47.5 21.309-47.5 47.5v146c0 20.476 13.023 37.966 31.221 44.625v41.812c0 4.143 3.357 7.5 7.5 7.5s7.5-3.357 7.5-7.5v-38.969c.426.011.85.032 1.279.032h298.529c4.143 0 7.5-3.357 7.5-7.5s-3.357-7.5-7.5-7.5h-298.529c-17.921 0-32.5-14.579-32.5-32.5v-146c0-17.921 14.579-32.5 32.5-32.5h358c17.921 0 32.5 14.579 32.5 32.5v146c0 17.921-14.579 32.5-32.5 32.5h-24.471c-4.143 0-7.5 3.357-7.5 7.5s3.357 7.5 7.5 7.5h24.471c2.132 0 4.228-.155 6.286-.429v84.429h-336.565c-11.103 0-21.25 4.142-29 10.951v-21.014c0-4.143-3.357-7.5-7.5-7.5s-7.5 3.357-7.5 7.5v53.563c0 .057.007.111.008.167-.001.111-.008.221-.008.333 0 24.262 19.738 44 44 44h209.368c4.143 0 7.5-3.357 7.5-7.5s-3.357-7.5-7.5-7.5h-209.368c-15.99 0-29-13.01-29-29s13.01-29 29-29h334.979c-8.705 18.428-8.704 39.571 0 58h-89.466c-4.143 0-7.5 3.357-7.5 7.5s3.357 7.5 7.5 7.5h93.545c4.461 0 8.482-2.292 10.756-6.13 2.272-3.838 2.35-8.465.206-12.376-8.747-15.964-8.747-35.024 0-50.987 1.088-1.986 1.598-4.157 1.545-6.315v-101.248c15.529-7.82 26.214-23.903 26.214-42.444v-146c0-18.541-10.685-34.624-26.214-42.444z"/><path d="m262.752 155.004h-33.112c-4.143 0-7.5 3.357-7.5 7.5v52.49.085 61.417c0 1.995.795 3.907 2.208 5.315 1.406 1.399 3.309 2.185 5.292 2.185h.033c.305-.001 30.57-.135 38.862-.135 21.054 0 38.183-17.129 38.183-38.184 0-14.392-8.006-26.945-19.795-33.452 5.91-6.078 9.56-14.365 9.56-23.492-.001-18.598-15.132-33.729-33.731-33.729zm0 15c10.328 0 18.73 8.402 18.73 18.729s-8.402 18.729-18.73 18.729c-2.428 0-25.612.031-25.612.031v-37.49h25.612zm5.783 98.857c-5.714 0-21.781.063-31.396.103v-46.417c3.956-.016 31.396-.053 31.396-.053 12.783 0 23.183 10.4 23.183 23.184s-10.4 23.183-23.183 23.183z"/><path d="m158.732 170.004c9.92 0 19.488 2.921 27.669 8.448 3.432 2.317 8.094 1.417 10.413-2.017 2.318-3.432 1.416-8.094-2.017-10.413-10.67-7.208-23.142-11.019-36.065-11.019-35.563 0-64.496 28.933-64.496 64.496s28.933 64.496 64.496 64.496c14.02 0 26.562-4.57 36.27-13.216 1.906-1.698 3.719-3.567 5.386-5.557 2.661-3.174 2.244-7.904-.931-10.565-3.174-2.661-7.904-2.245-10.565.931-1.2 1.432-2.501 2.774-3.866 3.99-7.017 6.249-15.862 9.417-26.293 9.417-27.292 0-49.496-22.204-49.496-49.496s22.203-49.495 49.495-49.495z"/><path d="m322.624 280.069c1.312 2.42 3.842 3.927 6.594 3.927h76.046c4.143 0 7.5-3.357 7.5-7.5s-3.357-7.5-7.5-7.5h-62.207l66.721-102.397c1.502-2.306 1.621-5.249.31-7.668-1.312-2.42-3.842-3.927-6.594-3.927h-71.938c-4.143 0-7.5 3.357-7.5 7.5s3.357 7.5 7.5 7.5h58.099l-66.721 102.397c-1.502 2.306-1.621 5.249-.31 7.668z"/></g></g></svg>