<svg id="Capa_1" enable-background="new 0 0 512.006 512.006" height="512" viewBox="0 0 512.006 512.006" width="512" xmlns="http://www.w3.org/2000/svg"><g><g><path d="m68.224 467.5v-400c0-33.137 26.863-60 60-60h300.566c11.046 0 20 8.954 20 20v408.819z" fill="#faf063"/><path d="m158.223 7.5c-33.14 0-60 26.86-60 60v397.54l-30 2.46v-400c0-33.14 26.86-60 60-60z" fill="#f3d332"/><path d="m448.163 497.1c.43.78.62 1.6.62 2.4 0 2.61-2.09 5-5 5h-339.06c-20.16 0-36.5-16.34-36.5-36.5 0-10.08 4.08-19.2 10.69-25.81s15.73-10.69 25.81-10.69h339.06c3.8 0 6.21 4.07 4.38 7.4-4.96 9.06-7.45 19.08-7.45 29.1s2.49 20.04 7.45 29.1z" fill="#f9f8f9"/><path d="m448.163 438.9c-3.89 7.1-6.26 14.78-7.09 22.6h-327.923c-8.3 0-15.022 6.74-15 15.04l.073 27.38c-17.06-3.06-30-17.98-30-35.92 0-10.08 4.08-19.2 10.69-25.81s15.73-10.69 25.81-10.69h339.06c3.8 0 6.21 4.07 4.38 7.4z" fill="#e3e0e4"/><path d="m435.003 332.5h-358c-22.091 0-40-17.909-40-40v-146c0-22.091 17.909-40 40-40h358c22.091 0 40 17.909 40 40v146c0 22.091-17.908 40-40 40z" fill="#b9a1d3"/><path d="m102.003 332.5h-25c-22.09 0-40-17.91-40-40v-146c0-22.09 17.91-40 40-40h25c-22.09 0-40 17.91-40 40v146c0 22.09 17.91 40 40 40z" fill="#9573bb"/></g><g><path d="m475.003 165.028c4.143 0 7.5-3.357 7.5-7.5v-11.028c0-18.541-10.685-34.624-26.214-42.444v-76.556c0-15.163-12.337-27.5-27.5-27.5h-254.044c-4.143 0-7.5 3.357-7.5 7.5s3.357 7.5 7.5 7.5h254.044c6.893 0 12.5 5.607 12.5 12.5v71.929c-2.059-.273-4.154-.429-6.286-.429h-358c-.429 0-.853.021-1.279.032v-31.532c0-28.948 23.552-52.5 52.5-52.5h11.521c4.143 0 7.5-3.357 7.5-7.5s-3.357-7.5-7.5-7.5h-11.521c-37.22 0-67.5 30.28-67.5 67.5v34.375c-18.198 6.659-31.221 24.149-31.221 44.625v146c0 20.476 13.023 37.966 31.221 44.625v130.375c0 .057.007.111.008.167-.001.111-.008.221-.008.333 0 24.262 19.738 44 44 44h269.368c9.734.143 9.729-15.144 0-15h-269.368c-15.99 0-29-13.01-29-29s13.01-29 29-29h334.979c-8.705 18.428-8.704 39.571 0 58h-29.466c-9.734-.143-9.729 15.144 0 15h33.545c9.211.306 15.657-10.576 10.962-18.506-8.747-15.964-8.747-35.024 0-50.987 1.088-1.986 1.598-4.157 1.545-6.315v-101.248c15.529-7.82 26.214-23.903 26.214-42.444v-99.972c0-4.143-3.357-7.5-7.5-7.5s-7.5 3.357-7.5 7.5v99.972c0 17.921-14.579 32.5-32.5 32.5h-153.426c-4.143 0-7.5 3.357-7.5 7.5s3.357 7.5 7.5 7.5h153.426c2.132 0 4.228-.155 6.286-.429v84.429h-336.565c-11.103 0-21.25 4.142-29 10.951v-94.983c.426.011.85.032 1.279.032h169.574c4.143 0 7.5-3.357 7.5-7.5s-3.357-7.5-7.5-7.5h-169.574c-17.921 0-32.5-14.579-32.5-32.5v-146c0-15.018 10.24-27.683 24.104-31.395 2.823-.488 5.447-1.236 8.396-1.105h358c17.921 0 32.5 14.579 32.5 32.5v11.028c0 4.143 3.358 7.5 7.5 7.5z"/><path d="m368.554 161.939h-29.082c-4.143 0-7.5 3.357-7.5 7.5v46.104.074 53.943c-.08 4.041 3.492 7.598 7.533 7.5.268-.001 26.848-.119 34.128-.119 18.995 0 34.449-15.454 34.449-34.449 0-12.566-6.766-23.578-16.844-29.595 4.878-5.414 7.853-12.575 7.853-20.419.001-16.839-13.698-30.539-30.537-30.539zm0 15c8.567 0 15.538 6.971 15.538 15.538s-6.971 15.538-15.538 15.538c-4.162.008-16.267.038-21.582.027v-31.104h21.582zm5.079 85.002c-4.842 0-18.146.052-26.661.087v-38.943c6.57-.042 19.786-.048 26.661-.042 10.725 0 19.449 8.725 19.449 19.449s-8.724 19.449-19.449 19.449z"/><path d="m168.824 161.516c-4.427-.251-8.486 2.523-9.855 6.747-.028.086-.054.172-.079.259l-22.936 80.459-23.763-80.541c-.026-.09-.055-.179-.084-.267-1.414-4.209-5.475-6.938-9.928-6.645-4.43.297-8.11 3.55-8.966 7.996l-17.752 98.354c-.735 4.076 1.973 7.978 6.049 8.713 4.074.733 7.977-1.972 8.713-6.049l13.836-76.659 22.624 76.684c.026.09.055.179.084.267 1.342 3.992 5.063 6.666 9.271 6.666h.049c4.229-.021 7.948-2.737 9.255-6.76.028-.086.055-.174.08-.262l21.848-76.64 14.674 76.78c.777 4.068 4.705 6.74 8.774 5.958 4.068-.777 6.736-4.706 5.958-8.774l-18.819-98.473c-.885-4.35-4.6-7.563-9.033-7.813z"/><path d="m429.163 161.5c-4.143 0-7.5 3.357-7.5 7.5v101c0 4.143 3.357 7.5 7.5 7.5s7.5-3.357 7.5-7.5v-101c0-4.143-3.357-7.5-7.5-7.5z"/><path d="m203.391 219.5c0 31.981 26.019 58 58 58s58-26.019 58-58-26.019-58-58-58-58 26.019-58 58zm101 0c0 23.71-19.29 43-43 43s-43-19.29-43-43 19.29-43 43-43 43 19.29 43 43z"/></g></g></svg>