<svg id="Capa_1" enable-background="new 0 0 512.006 512.006" height="512" viewBox="0 0 512.006 512.006" width="512" xmlns="http://www.w3.org/2000/svg"><g><g><path d="m68.224 467.5v-400c0-33.137 26.863-60 60-60h300.566c11.046 0 20 8.954 20 20v408.819z" fill="#faf063"/><path d="m158.223 7.5c-33.14 0-60 26.86-60 60v397.54l-30 2.46v-400c0-33.14 26.86-60 60-60z" fill="#f3d332"/><path d="m448.163 497.1c.43.78.62 1.6.62 2.4 0 2.61-2.09 5-5 5h-339.06c-20.16 0-36.5-16.34-36.5-36.5 0-10.08 4.08-19.2 10.69-25.81s15.73-10.69 25.81-10.69h339.06c3.8 0 6.21 4.07 4.38 7.4-4.96 9.06-7.45 19.08-7.45 29.1s2.49 20.04 7.45 29.1z" fill="#f9f8f9"/><path d="m448.163 438.9c-3.89 7.1-6.26 14.78-7.09 22.6h-327.923c-8.3 0-15.022 6.74-15 15.04l.073 27.38c-17.06-3.06-30-17.98-30-35.92 0-10.08 4.08-19.2 10.69-25.81s15.73-10.69 25.81-10.69h339.06c3.8 0 6.21 4.07 4.38 7.4z" fill="#e3e0e4"/><path d="m435.003 332.5h-358c-22.091 0-40-17.909-40-40v-146c0-22.091 17.909-40 40-40h358c22.091 0 40 17.909 40 40v146c0 22.091-17.908 40-40 40z" fill="#b9a1d3"/><path d="m102.003 332.5h-25c-22.09 0-40-17.91-40-40v-146c0-22.09 17.91-40 40-40h25c-22.09 0-40 17.91-40 40v146c0 22.09 17.91 40 40 40z" fill="#9573bb"/></g><g><path d="m456.289 104.056v-76.556c0-15.163-12.337-27.5-27.5-27.5h-300.565c-37.22 0-67.5 30.28-67.5 67.5v34.375c-18.198 6.659-31.221 24.149-31.221 44.625v116.015c0 4.143 3.357 7.5 7.5 7.5s7.5-3.357 7.5-7.5v-116.015c0-15.018 10.24-27.683 24.104-31.395 2.823-.488 5.447-1.236 8.396-1.105h358c17.921 0 32.5 14.579 32.5 32.5v25.309c0 4.143 3.357 7.5 7.5 7.5s7.5-3.357 7.5-7.5v-25.309c0-18.541-10.684-34.624-26.214-42.444zm-379.286-5.056c-.429 0-.853.021-1.279.032v-31.532c0-28.948 23.552-52.5 52.5-52.5h300.565c6.893 0 12.5 5.607 12.5 12.5v71.929c-2.059-.273-4.154-.429-6.286-.429z"/><path d="m475.003 199.059c-4.143 0-7.5 3.357-7.5 7.5v85.941c0 17.921-14.579 32.5-32.5 32.5h-358c-16.091 0-29.591-11.513-32.099-27.374-.647-4.091-4.479-6.883-8.58-6.236-4.091.647-6.883 4.488-6.236 8.58 2.778 17.564 14.769 31.473 30.636 37.196v130.334c0 .057.007.111.008.167-.001.111-.008.221-.008.333 0 24.262 19.738 44 44 44h339.059c9.211.306 15.657-10.576 10.962-18.506-8.747-15.964-8.747-35.024 0-50.987 1.088-1.986 1.598-4.157 1.545-6.315v-28.186c0-4.143-3.357-7.5-7.5-7.5s-7.5 3.357-7.5 7.5v15.994h-255.946c-4.143 0-7.5 3.357-7.5 7.5s3.357 7.5 7.5 7.5h254.359c-8.705 18.428-8.704 39.571 0 58h-334.979c-15.99 0-29-13.01-29-29s13.01-29 29-29h45.045c4.143 0 7.5-3.357 7.5-7.5s-3.357-7.5-7.5-7.5h-45.045c-11.103 0-21.25 4.142-29 10.951v-94.979c.426.011.851.028 1.279.028h358c2.132 0 4.228-.155 6.286-.429v33.435c0 4.143 3.357 7.5 7.5 7.5s7.5-3.357 7.5-7.5v-38.062c15.529-7.82 26.214-23.903 26.214-42.444v-85.941c0-4.143-3.357-7.5-7.5-7.5z"/><path d="m250.837 155.5h-32.823c-4.143 0-7.5 3.357-7.5 7.5v52.033.085 60.882c-.08 4.041 3.492 7.598 7.533 7.5.303-.001 30.303-.135 38.522-.135 20.907 0 37.916-17.009 37.916-37.916 0-14.261-7.917-26.703-19.584-33.175 5.835-6.032 9.437-14.238 9.437-23.273.001-18.473-15.028-33.501-33.501-33.501zm0 15c10.202 0 18.502 8.3 18.502 18.501 0 10.202-8.3 18.502-18.502 18.502-4.853.012-19.238.042-25.323.03v-37.033zm5.733 97.865c-5.651 0-21.519.063-31.056.103v-45.882c7.786-.049 22.845-.061 31.056-.053 12.636 0 22.916 10.28 22.916 22.916s-10.281 22.916-22.916 22.916z"/><path d="m182.705 170.5c4.143 0 7.5-3.357 7.5-7.5s-3.357-7.5-7.5-7.5h-45.799c-4.143 0-7.5 3.357-7.5 7.5v113c0 4.143 3.357 7.5 7.5 7.5s7.5-3.357 7.5-7.5v-50.07h34.661c4.143 0 7.5-3.357 7.5-7.5s-3.357-7.5-7.5-7.5h-34.661v-40.43z"/><path d="m377.161 197.341c.21-1.198.697-4.773.741-5.981 0-19.772-16.087-35.859-35.859-35.859-17.098 0-31.896 12.161-35.188 28.917-.799 4.064 1.85 8.006 5.914 8.805 4.068.796 8.008-1.85 8.805-5.914 1.913-9.739 10.521-16.808 20.469-16.808 11.354 0 20.619 9.119 20.854 20.418l-.432 3.384c-1.495 6.149-5.04 13.247-10.539 21.105-17.615 25.168-28.133 38.939-33.783 46.338-6.724 8.804-8.531 11.17-7.154 15.645.771 2.508 2.688 4.438 5.261 5.296 1.006.335 2.495.833 23.561.833 8.335 0 19.736-.078 35.384-.275 4.142-.052 7.457-3.451 7.404-7.593-.051-4.11-3.399-7.406-7.497-7.406-.032 0-.064 0-.097.001-13.54.17-31.417.299-43.134.237 6.044-7.932 16.278-21.518 32.345-44.475 6.71-9.588 11.065-18.561 12.945-26.668z"/></g></g></svg>