<svg id="Capa_1" enable-background="new 0 0 512 512" height="512" viewBox="0 0 512 512" width="512" xmlns="http://www.w3.org/2000/svg"><g><g><g><path d="m393.477 151.547v263.953c0 22.091-17.909 40-40 40h-275c-22.091 0-40-17.909-40-40v-368c0-22.091 17.909-40 40-40h171.197c7.968 0 15.608 3.17 21.236 8.809l113.803 114.047c5.612 5.625 8.764 13.246 8.764 21.191z" fill="#f9f8f9"/><path d="m393.477 151.55v7.59h-104.32c-25.94 0-47.04-21.13-47.04-47.1v-104.54h7.56c7.96 0 15.6 3.17 21.23 8.81l113.81 114.05c5.61 5.62 8.76 13.24 8.76 21.19z" fill="#f9f8f9"/><path d="m108.477 455.5h-30c-22.09 0-40-17.91-40-40v-368c0-22.09 17.91-40 40-40h30c-22.09 0-40 17.91-40 40v368c0 22.09 17.91 40 40 40z" fill="#e3e0e4"/><g fill="#a29aa5"><path d="m219.585 157.5h-123.7c-4.142 0-7.5-3.358-7.5-7.5s3.358-7.5 7.5-7.5h123.7c4.142 0 7.5 3.358 7.5 7.5s-3.358 7.5-7.5 7.5z"/><path d="m219.585 337.5h-123.7c-4.142 0-7.5-3.358-7.5-7.5s3.358-7.5 7.5-7.5h123.7c4.142 0 7.5 3.358 7.5 7.5s-3.358 7.5-7.5 7.5z"/><path d="m317.885 217.5h-224c-4.142 0-7.5-3.358-7.5-7.5s3.358-7.5 7.5-7.5h224c4.142 0 7.5 3.358 7.5 7.5s-3.358 7.5-7.5 7.5z"/><path d="m317.885 277.5h-224c-4.142 0-7.5-3.358-7.5-7.5s3.358-7.5 7.5-7.5h224c4.142 0 7.5 3.358 7.5 7.5s-3.358 7.5-7.5 7.5z"/></g><circle cx="371.885" cy="403" fill="#9ec8fc" r="101.5"/><path d="m452.957 464.07c-18.52 24.56-47.94 40.43-81.07 40.43-56.06 0-101.5-45.44-101.5-101.5 0-33.13 15.87-62.55 40.43-81.08-12.83 16.99-20.43 38.15-20.43 61.08 0 56.06 45.44 101.5 101.5 101.5 22.93 0 44.08-7.6 61.07-20.43z" fill="#62a4fb"/><path d="m393.477 151.55v17.59h-104.32c-31.45 0-57.04-25.62-57.04-57.1v-104.54h17.56c7.96 0 15.6 3.17 21.23 8.81l113.81 114.05c5.61 5.62 8.76 13.24 8.76 21.19z" fill="#e3e0e4"/><path d="m390.787 139.14h-101.63c-14.93 0-27.04-12.14-27.04-27.1v-101.82c3.24 1.46 6.23 3.52 8.79 6.09l113.81 114.05c2.55 2.56 4.61 5.54 6.07 8.78z" fill="#a29aa5"/></g><path d="m376.669 358.001 11.432 23.163c.762 1.544 2.235 2.615 3.94 2.862l25.562 3.714c4.292.624 6.005 5.898 2.9 8.925l-18.497 18.03c-1.233 1.202-1.796 2.934-1.505 4.631l4.367 25.459c.733 4.274-3.753 7.534-7.592 5.516l-22.864-12.02c-1.524-.801-3.345-.801-4.87 0l-22.864 12.02c-3.839 2.018-8.325-1.242-7.592-5.516l4.367-25.459c.291-1.697-.272-3.429-1.505-4.631l-18.497-18.03c-3.106-3.027-1.392-8.301 2.9-8.925l25.562-3.714c1.704-.248 3.178-1.318 3.94-2.862l11.432-23.163c1.919-3.889 7.465-3.889 9.384 0z" fill="#faf063"/></g><g><path d="m38.523 327.5c4.143 0 7.5-3.357 7.5-7.5v-272.5c0-17.92 14.579-32.5 32.5-32.5h79.258c4.143 0 7.5-3.358 7.5-7.5s-3.357-7.5-7.5-7.5h-79.258c-26.191 0-47.5 21.309-47.5 47.5v272.5c0 4.143 3.357 7.5 7.5 7.5z"/><path d="m219.631 142.5h-123.7c-4.143 0-7.5 3.358-7.5 7.5s3.357 7.5 7.5 7.5h123.7c4.143 0 7.5-3.358 7.5-7.5s-3.357-7.5-7.5-7.5z"/><path d="m95.931 322.5c-4.143 0-7.5 3.357-7.5 7.5s3.357 7.5 7.5 7.5h123.7c4.143 0 7.5-3.357 7.5-7.5s-3.357-7.5-7.5-7.5z"/><path d="m317.931 202.5h-224c-4.143 0-7.5 3.358-7.5 7.5s3.357 7.5 7.5 7.5h224c4.143 0 7.5-3.358 7.5-7.5s-3.357-7.5-7.5-7.5z"/><path d="m325.431 270c0-4.143-3.357-7.5-7.5-7.5h-224c-4.143 0-7.5 3.357-7.5 7.5s3.357 7.5 7.5 7.5h224c4.143 0 7.5-3.357 7.5-7.5z"/><path d="m460.294 339.104c-2.432-3.354-7.119-4.101-10.475-1.672-3.354 2.431-4.103 7.12-1.672 10.475 11.664 16.095 17.829 35.146 17.829 55.094 0 51.832-42.168 94-94 94s-94-42.168-94-94 42.168-94 94-94c6.748 0 13.407.724 19.894 2.121.09.02.181.039.273.056 11.522 2.517 22.488 7.186 32.385 13.872 3.433 2.317 8.095 1.416 10.413-2.017 2.318-3.432 1.416-8.094-2.017-10.413-9.848-6.653-20.609-11.58-31.902-14.693v-146.38c0-10.002-3.891-19.409-10.955-26.488l-113.803-114.047c-7.085-7.101-16.513-11.012-26.544-11.012h-56.743c-4.143 0-7.5 3.358-7.5 7.5s3.357 7.5 7.5 7.5h56.743c1.686 0 3.338.203 4.944.562v49.438c0 4.142 3.357 7.5 7.5 7.5s7.5-3.358 7.5-7.5v-39.366l105.78 106.006h-86.237c-10.776 0-19.543-8.793-19.543-19.603v-12.037c0-4.142-3.357-7.5-7.5-7.5s-7.5 3.358-7.5 7.5v12.037c0 19.08 15.496 34.603 34.543 34.603h96.262c.354 1.595.553 3.235.553 4.908v143.369c-4.632-.596-9.319-.916-14.046-.916-60.103 0-109 48.897-109 109 0 16.037 3.483 31.275 9.73 45h-194.183c-17.921 0-32.5-14.579-32.5-32.5v-60.501c0-4.143-3.357-7.5-7.5-7.5s-7.5 3.357-7.5 7.5v60.5c0 26.191 21.309 47.5 47.5 47.5h202.502c19.527 29.501 53.003 49 90.952 49 60.103 0 109-48.897 109-109 0-23.13-7.152-45.225-20.683-63.896z"/><path d="m428.96 388.986c-1.508-4.644-5.446-7.965-10.279-8.667l-24.382-3.543-10.904-22.095s0-.001-.001-.001c-2.161-4.377-6.535-7.096-11.417-7.096s-9.256 2.719-11.418 7.097l-10.904 22.095-24.383 3.543c-4.832.702-8.771 4.023-10.278 8.667-1.509 4.644-.273 9.644 3.222 13.051l17.644 17.198-4.164 24.283c-.826 4.813 1.115 9.584 5.065 12.454 3.96 2.878 9.105 3.234 13.408.969l21.809-11.465 21.808 11.464c4.32 2.273 9.458 1.902 13.409-.968 3.95-2.87 5.892-7.642 5.066-12.453l-4.165-24.284 17.643-17.198c3.495-3.407 4.73-8.407 3.221-13.051zm-32.188 20.339c-3.004 2.928-4.373 7.143-3.662 11.271l3.589 20.931-18.796-9.881c-3.711-1.953-8.142-1.952-11.851-.001l-18.797 9.882 3.589-20.927c.711-4.132-.658-8.347-3.661-11.274l-15.207-14.822 21.018-3.054c4.149-.604 7.732-3.209 9.585-6.966l9.398-19.044 9.397 19.041c1.854 3.76 5.437 6.365 9.588 6.969l21.016 3.054z"/></g></g></svg>